<svg width="28" height="28" viewBox="0 0 28 28" fill="none" xmlns="http://www.w3.org/2000/svg">
<rect width="28" height="28" rx="14" fill="#EF3340" fill-opacity="0.15"/>
<path d="M20.6467 18.22C20.6467 18.46 20.5934 18.7067 20.48 18.9467C20.3667 19.1867 20.22 19.4133 20.0267 19.6267C19.7 19.9867 19.34 20.2467 18.9334 20.4133C18.5334 20.58 18.1 20.6667 17.6334 20.6667C16.9534 20.6667 16.2267 20.5067 15.46 20.18C14.6934 19.8533 13.9267 19.4133 13.1667 18.86C12.4 18.3 11.6734 17.68 10.98 16.9933C10.2934 16.3 9.67337 15.5733 9.12004 14.8133C8.57337 14.0533 8.13337 13.2933 7.81337 12.54C7.49337 11.78 7.33337 11.0533 7.33337 10.36C7.33337 9.90667 7.41337 9.47334 7.57337 9.07334C7.73337 8.66667 7.98671 8.29334 8.34004 7.96C8.76671 7.54 9.23337 7.33334 9.72671 7.33334C9.91337 7.33334 10.1 7.37334 10.2667 7.45334C10.44 7.53334 10.5934 7.65334 10.7134 7.82667L12.26 10.0067C12.38 10.1733 12.4667 10.3267 12.5267 10.4733C12.5867 10.6133 12.62 10.7533 12.62 10.88C12.62 11.04 12.5734 11.2 12.48 11.3533C12.3934 11.5067 12.2667 11.6667 12.1067 11.8267L11.6 12.3533C11.5267 12.4267 11.4934 12.5133 11.4934 12.62C11.4934 12.6733 11.5 12.72 11.5134 12.7733C11.5334 12.8267 11.5534 12.8667 11.5667 12.9067C11.6867 13.1267 11.8934 13.4133 12.1867 13.76C12.4867 14.1067 12.8067 14.46 13.1534 14.8133C13.5134 15.1667 13.86 15.4933 14.2134 15.7933C14.56 16.0867 14.8467 16.2867 15.0734 16.4067C15.1067 16.42 15.1467 16.44 15.1934 16.46C15.2467 16.48 15.3 16.4867 15.36 16.4867C15.4734 16.4867 15.56 16.4467 15.6334 16.3733L16.14 15.8733C16.3067 15.7067 16.4667 15.58 16.62 15.5C16.7734 15.4067 16.9267 15.36 17.0934 15.36C17.22 15.36 17.3534 15.3867 17.5 15.4467C17.6467 15.5067 17.8 15.5933 17.9667 15.7067L20.1734 17.2733C20.3467 17.3933 20.4667 17.5333 20.54 17.7C20.6067 17.8667 20.6467 18.0333 20.6467 18.22Z" stroke="#EF3340" stroke-miterlimit="10"/>
<path d="M18.3335 12.0001C18.3335 11.6001 18.0201 10.9867 17.5535 10.4867C17.1268 10.0267 16.5601 9.66675 16.0001 9.66675" stroke="#EF3340" stroke-linecap="round" stroke-linejoin="round"/>
<path d="M20.6668 12C20.6668 9.42 18.5801 7.33334 16.0001 7.33334" stroke="#EF3340" stroke-linecap="round" stroke-linejoin="round"/>
</svg>
