<svg width="28" height="22" viewBox="0 0 28 22" fill="none" xmlns="http://www.w3.org/2000/svg">
<path d="M2.33333 21.5C1.69167 21.5 1.14256 21.2717 0.686 20.8152C0.228667 20.3578 0 19.8083 0 19.1667V2.83333C0 2.19167 0.228667 1.64217 0.686 1.18483C1.14256 0.728278 1.69167 0.5 2.33333 0.5H25.6667C26.3083 0.5 26.8578 0.728278 27.3152 1.18483C27.7717 1.64217 28 2.19167 28 2.83333V19.1667C28 19.8083 27.7717 20.3578 27.3152 20.8152C26.8578 21.2717 26.3083 21.5 25.6667 21.5H2.33333ZM10.5 13.3333C11.4722 13.3333 12.2986 12.9931 12.9792 12.3125C13.6597 11.6319 14 10.8056 14 9.83333C14 8.86111 13.6597 8.03472 12.9792 7.35417C12.2986 6.67361 11.4722 6.33333 10.5 6.33333C9.52778 6.33333 8.70139 6.67361 8.02083 7.35417C7.34028 8.03472 7 8.86111 7 9.83333C7 10.8056 7.34028 11.6319 8.02083 12.3125C8.70139 12.9931 9.52778 13.3333 10.5 13.3333ZM21.3208 17.2708C21.5347 17.4847 21.8069 17.5819 22.1375 17.5625C22.4681 17.5431 22.7403 17.4264 22.9542 17.2125L23.7708 16.3958C23.9847 16.1819 24.1014 15.9292 24.1208 15.6375C24.1403 15.3458 24.0625 15.0833 23.8875 14.85L23.1 13.8C23.0028 13.6444 22.8713 13.5278 22.7057 13.45C22.5408 13.3722 22.3611 13.3333 22.1667 13.3333H20.825C20.7083 12.9833 20.6111 12.6088 20.5333 12.2098C20.4556 11.8116 20.4167 11.4083 20.4167 11C20.4167 10.5917 20.4556 10.1981 20.5333 9.81933C20.6111 9.43978 20.7083 9.05556 20.825 8.66667H22.1667C22.3611 8.66667 22.5408 8.62778 22.7057 8.55C22.8713 8.47222 23.0028 8.35556 23.1 8.2L23.8875 7.15C24.0625 6.91667 24.1403 6.65417 24.1208 6.3625C24.1014 6.07083 23.9847 5.81806 23.7708 5.60417L22.9542 4.7875C22.7403 4.57361 22.4681 4.45694 22.1375 4.4375C21.8069 4.41806 21.5347 4.51528 21.3208 4.72917C20.5042 5.54583 19.8578 6.50367 19.3818 7.60267C18.9051 8.70089 18.6667 9.83333 18.6667 11C18.6667 12.1667 18.9051 13.2991 19.3818 14.3973C19.8578 15.4963 20.5042 16.4542 21.3208 17.2708ZM2.45 19.1667H18.55C17.7333 17.7083 16.6056 16.5658 15.1667 15.739C13.7278 14.913 12.1722 14.5 10.5 14.5C8.82778 14.5 7.27222 14.913 5.83333 15.739C4.39444 16.5658 3.26667 17.7083 2.45 19.1667Z" fill="#EF3340"/>
</svg>
