<svg width="14" height="22" viewBox="0 0 14 22" fill="none" xmlns="http://www.w3.org/2000/svg">
<path d="M9.50833 22C9.35278 22 9.20228 21.9694 9.05683 21.9083C8.91061 21.8472 8.77917 21.7556 8.6625 21.6333L1.63333 13.9639C1.49722 13.8213 1.38561 13.6278 1.2985 13.3833C1.21061 13.1389 1.16667 12.9148 1.16667 12.7111C1.16667 12.2426 1.32689 11.8401 1.64733 11.5036C1.96856 11.1679 2.35278 11 2.8 11H5.25C6.28056 11 7.17033 10.6484 7.91933 9.94522C8.66756 9.24285 9.11944 8.37222 9.275 7.33333H1.16667C0.836111 7.33333 0.558834 7.216 0.334834 6.98133C0.111611 6.74748 0 6.45741 0 6.11111C0 5.76481 0.111611 5.47433 0.334834 5.23967C0.558834 5.00582 0.836111 4.88889 1.16667 4.88889H8.925C8.59444 4.17593 8.10367 3.59007 7.45267 3.13133C6.80089 2.67341 6.06667 2.44444 5.25 2.44444H1.16667C0.836111 2.44444 0.558834 2.32711 0.334834 2.09244C0.111611 1.85859 0 1.56852 0 1.22222C0 0.875926 0.111611 0.585444 0.334834 0.350778C0.558834 0.116926 0.836111 0 1.16667 0H12.8333C13.1639 0 13.4408 0.116926 13.664 0.350778C13.888 0.585444 14 0.875926 14 1.22222C14 1.56852 13.888 1.85859 13.664 2.09244C13.4408 2.32711 13.1639 2.44444 12.8333 2.44444H10.2083C10.4806 2.79074 10.7236 3.16759 10.9375 3.575C11.1514 3.98241 11.3167 4.42037 11.4333 4.88889H12.8333C13.1639 4.88889 13.4408 5.00582 13.664 5.23967C13.888 5.47433 14 5.76481 14 6.11111C14 6.45741 13.888 6.74748 13.664 6.98133C13.4408 7.216 13.1639 7.33333 12.8333 7.33333H11.6375C11.4819 9.06481 10.8014 10.516 9.59583 11.6869C8.39028 12.8586 6.94167 13.4444 5.25 13.4444H4.40417L10.3542 19.9222C10.7042 20.3093 10.7769 20.7521 10.5723 21.2508C10.3686 21.7503 10.0139 22 9.50833 22Z" fill="#EF3340"/>
</svg>
