<svg width="79" height="60" viewBox="0 0 79 60" fill="none" xmlns="http://www.w3.org/2000/svg">
<path d="M58.8834 33.0411L58.8833 33.0406C58.6834 32.0163 58.5833 30.9787 58.5833 29.9267C58.5833 28.8744 58.6834 27.8687 58.8807 26.9074L58.8808 26.9069C59.023 26.2123 59.1897 25.5107 59.3812 24.8019H62.0742C62.8087 24.8019 63.5151 24.6536 64.1737 24.3432C64.8607 24.0204 65.4204 23.5309 65.831 22.8956L67.9986 20.0035C68.6882 19.0833 69.0028 18.0192 68.9263 16.8716C68.8487 15.7064 68.3705 14.6855 67.543 13.8574L65.262 11.5748C64.399 10.7112 63.305 10.2618 62.0748 10.1894C60.7952 10.114 59.6316 10.5029 58.7235 11.4117C56.3135 13.8234 54.4105 16.6489 53.0138 19.8759C51.6083 23.116 50.9013 26.4698 50.9013 29.9267C50.9013 33.3835 51.6083 36.7373 53.0138 39.9774C54.4105 43.2044 56.3135 46.0299 58.7235 48.4416C59.6316 49.3504 60.7952 49.7393 62.0748 49.6639C63.305 49.5915 64.399 49.1421 65.262 48.2785L67.543 45.9959C68.3705 45.1678 68.8487 44.1469 68.9263 42.9817C69.0028 41.8341 68.6882 40.77 67.9986 39.8498L65.831 36.9577C65.4204 36.3224 64.8607 35.8329 64.1737 35.5101C63.5151 35.1997 62.8087 35.0514 62.0742 35.0514H59.3589C59.1789 34.4134 59.0202 33.7434 58.8834 33.0411ZM5.78437 52.0708L4.62079 54.1501H7.0035H51.9725H54.3552L53.1916 52.0708C50.7883 47.7762 47.4584 44.3991 43.2189 41.9614L43.2184 41.9611C38.9859 39.5298 34.4009 38.3124 29.488 38.3124C24.5751 38.3124 19.99 39.5298 15.7576 41.9611L15.7571 41.9614C11.5176 44.3991 8.18769 47.7762 5.78437 52.0708ZM6.67764 57.8779C5.25883 57.8779 4.0798 57.3891 3.06468 56.3732C2.04684 55.3547 1.55744 54.1731 1.55744 52.7531V7.10023C1.55744 5.68023 2.04684 4.49862 3.06468 3.48007C4.0798 2.46423 5.25883 1.97544 6.67764 1.97544H71.8501C73.2689 1.97544 74.4495 2.46431 75.4671 3.48091C76.4819 4.4989 76.9703 5.68023 76.9703 7.10023V52.7531C76.9703 54.1731 76.4819 55.3544 75.4671 56.3724C74.4495 57.389 73.2689 57.8779 71.8501 57.8779H6.67764ZM29.488 37.8455C32.5701 37.8455 35.235 36.75 37.4008 34.5827C39.5665 32.4154 40.6609 29.7491 40.6609 26.6657C40.6609 23.5823 39.5665 20.916 37.4008 18.7488C35.235 16.5815 32.5701 15.4859 29.488 15.4859C26.4059 15.4859 23.741 16.5815 21.5752 18.7488C19.4095 20.916 18.3151 23.5823 18.3151 26.6657C18.3151 29.7491 19.4095 32.4154 21.5752 34.5827C23.741 36.75 26.4059 37.8455 29.488 37.8455Z" stroke="#EF3340" stroke-width="2.79409"/>
</svg>
