<svg width="36" height="37" viewBox="0 0 36 37" fill="none" xmlns="http://www.w3.org/2000/svg">
<ellipse cx="18" cy="18.5104" rx="18" ry="17.6974" fill="white"/>
<path d="M25.5 22.4182V14.8413C25.5 14.7322 25.4705 14.6252 25.4145 14.531C25.3585 14.4369 25.2781 14.3591 25.1814 14.3057L18.3064 10.5035C18.2129 10.4518 18.1073 10.4246 18 10.4246C17.8927 10.4246 17.7871 10.4518 17.6936 10.5035L10.8186 14.3057C10.7219 14.3591 10.6415 14.4369 10.5855 14.531C10.5295 14.6252 10.5 14.7322 10.5 14.8413V22.4182C10.5 22.5272 10.5295 22.6343 10.5855 22.7284C10.6415 22.8225 10.7219 22.9003 10.8186 22.9537L17.6936 26.7559C17.7871 26.8076 17.8927 26.8348 18 26.8348C18.1073 26.8348 18.2129 26.8076 18.3064 26.7559L25.1814 22.9537C25.2781 22.9003 25.3585 22.8225 25.4145 22.7284C25.4705 22.6343 25.5 22.5272 25.5 22.4182Z" stroke="#EF3340" stroke-linecap="round" stroke-linejoin="round"/>
<path d="M21.8298 20.5129V16.5187L14.25 12.4084" stroke="#EF3340" stroke-linecap="round" stroke-linejoin="round"/>
<path d="M25.4142 14.5299L18.0745 18.6296L10.5869 14.5291" stroke="#EF3340" stroke-linecap="round" stroke-linejoin="round"/>
<path d="M18.0743 18.6302L18.001 26.8353" stroke="#EF3340" stroke-linecap="round" stroke-linejoin="round"/>
</svg>
