<svg width="58" height="57" viewBox="0 0 58 57" fill="none" xmlns="http://www.w3.org/2000/svg">
<path d="M9.94155 0.984004C9.76803 0.993433 9.59994 1.04786 9.45381 1.14191C9.30769 1.23596 9.18854 1.36643 9.10809 1.52047C9.02764 1.67451 8.98865 1.84682 8.99496 2.02049C9.00126 2.19415 9.05265 2.36314 9.14405 2.51093L17.41 16.3103C16.0872 17.1342 14.855 18.0943 13.7438 19.1715L2.85102 1.48287C2.75741 1.32402 2.62178 1.19412 2.45906 1.10742C2.29634 1.02073 2.11285 0.980585 1.92879 0.991502C1.75482 1.0023 1.58668 1.05833 1.441 1.15402C1.29531 1.24971 1.17711 1.38183 1.09809 1.5372C1.01907 1.69256 0.981967 1.86588 0.990443 2.03998C0.998918 2.21408 1.05268 2.38289 1.14642 2.52985L12.2282 20.5321C12.2583 20.5803 12.2924 20.6258 12.3303 20.6682C8.88946 24.6501 6.99763 29.7379 7.00102 35.0004C7.00502 40.8332 9.32387 46.426 13.4483 50.5504C17.5727 54.6749 23.1655 56.9937 28.9983 56.9977C34.8311 56.9937 40.4239 54.6749 44.5483 50.5504C48.6727 46.426 50.9916 40.8332 50.9956 35.0004C50.9999 29.7366 49.108 24.6473 45.6664 20.6644L56.854 2.52985C56.9235 2.41817 56.9703 2.29386 56.9917 2.16409C57.0132 2.03432 57.0089 1.90164 56.9791 1.77354C56.9492 1.64543 56.8944 1.52452 56.8179 1.41758C56.7413 1.31065 56.6444 1.21982 56.5327 1.15033C56.421 1.08084 56.2968 1.03396 56.167 1.01249C56.0372 0.991033 55.9045 0.99535 55.7764 1.02518C55.6483 1.05501 55.5273 1.10985 55.4204 1.18643C55.3134 1.26302 55.2226 1.35989 55.1531 1.47156L44.249 19.1601C43.1359 18.0878 41.9134 17.1353 40.6017 16.3179C40.6069 16.3079 40.6119 16.2978 40.6168 16.2877L48.8563 2.51093C48.9487 2.36125 48.9999 2.18993 49.005 2.01414C49.0101 1.83836 48.9688 1.66428 48.8853 1.50951C48.8018 1.35475 48.679 1.22471 48.5293 1.13245C48.3795 1.0402 48.2082 0.989017 48.0324 0.984004C47.8529 0.980491 47.6757 1.02533 47.5194 1.11377C47.3632 1.2022 47.2336 1.33097 47.1442 1.48667L38.9009 15.2596C38.8859 15.2842 38.8721 15.3094 38.8593 15.3351C37.643 14.7267 36.3726 14.2333 35.0646 13.8612L41.8603 2.51093C41.9528 2.36098 42.004 2.18932 42.0089 2.01322C42.0138 1.83712 41.9722 1.66289 41.8883 1.50801C41.8043 1.35314 41.681 1.22306 41.5308 1.13107C41.3805 1.03907 41.2087 0.988371 41.0326 0.984004C40.8524 0.979806 40.6745 1.02426 40.5175 1.11273C40.3605 1.2012 40.2303 1.33039 40.1406 1.48667L33.0198 13.3773C30.359 12.8831 27.63 12.8831 24.9692 13.3773C24.9511 13.3421 24.9309 13.308 24.9088 13.2752L17.856 1.48667C17.7639 1.32572 17.6289 1.19352 17.4661 1.10477C17.3033 1.01602 17.119 0.974205 16.9338 0.984004C16.7606 0.99405 16.593 1.04888 16.4474 1.14318C16.3018 1.23748 16.1831 1.36803 16.1031 1.52197C16.0231 1.67591 15.9844 1.84793 15.9909 2.0213C15.9974 2.19466 16.0488 2.3634 16.1401 2.51093L22.9283 13.8574C21.613 14.2353 20.3506 14.7304 19.1487 15.3313L10.8487 1.48667C10.7574 1.3275 10.6242 1.19642 10.4636 1.10777C10.303 1.01912 10.1249 0.976332 9.94155 0.984004ZM28.9983 14.995C31.6254 14.994 34.2269 15.5108 36.6541 16.5159C39.0813 17.521 41.2866 18.9947 43.1438 20.8526C45.0011 22.7106 46.4739 24.9165 47.4781 27.3441C48.4823 29.7717 48.9982 32.3733 48.9962 35.0004C48.9987 37.627 48.4832 40.2282 47.4794 42.6554C46.4755 45.0825 45.0029 47.2878 43.1458 49.1452C41.2887 51.0026 39.0837 52.4756 36.6567 53.48C34.2298 54.4843 31.6286 55.0002 29.0021 54.9982C26.3755 55.0007 23.7743 54.4853 21.3472 53.4815C18.92 52.4776 16.7147 51.005 14.8572 49.148C12.9998 47.2909 11.5268 45.0858 10.5225 42.6588C9.51815 40.2319 9.00222 37.6308 9.00421 35.0042C9.00123 32.377 9.51625 29.775 10.5198 27.347C11.5234 24.919 12.9958 22.7127 14.8528 20.8543C16.7098 18.9958 18.915 17.5218 21.3422 16.5164C23.7695 15.511 26.3711 14.994 28.9983 14.995ZM28.9983 18.9976C24.7563 19.0026 20.6896 20.6904 17.6908 23.6907C14.692 26.6909 13.006 30.7584 13.003 35.0004C13.006 39.2421 14.6921 43.3091 17.691 46.3088C20.69 49.3084 24.7567 50.9955 28.9983 50.9995C33.2413 50.9965 37.3098 49.3102 40.3107 46.3106C43.3117 43.3111 44.9999 39.2434 45.0049 35.0004C44.9989 30.7574 43.3105 26.6899 40.3098 23.69C37.3092 20.6901 33.2413 19.0026 28.9983 18.9976ZM28.9983 21.0007C30.8374 20.9992 32.6587 21.3603 34.3581 22.0633C36.0575 22.7663 37.6016 23.7974 38.9022 25.0977C40.2028 26.3979 41.2343 27.9417 41.9377 29.6409C42.6412 31.3402 43.0027 33.1614 43.0017 35.0004C43.0032 36.8394 42.642 38.6607 41.9387 40.3599C41.2354 42.0591 40.2038 43.6029 38.9031 44.903C37.6024 46.203 36.058 47.2338 34.3584 47.9362C32.6588 48.6385 30.8373 48.9988 28.9983 48.9963C27.16 48.9983 25.3393 48.6376 23.6405 47.9349C21.9418 47.2322 20.3984 46.2013 19.0986 44.9012C17.7989 43.6011 16.7684 42.0574 16.0662 40.3585C15.3639 38.6596 15.0037 36.8388 15.0062 35.0004C15.0037 33.1617 15.3639 31.3405 16.066 29.6412C16.7682 27.9418 17.7985 26.3976 19.0982 25.097C20.3978 23.7963 21.9412 22.7646 23.64 22.0611C25.3388 21.3576 27.1596 20.9959 28.9983 20.9969V21.0007ZM29.0172 25.9975C28.9818 25.9981 28.9465 26.0006 28.9114 26.005C28.7413 26.0206 28.578 26.0795 28.4371 26.1761C28.2962 26.2727 28.1823 26.4038 28.1063 26.5568L25.9746 30.8769L21.1972 31.5761C21.0122 31.6029 20.8384 31.6809 20.6955 31.8013C20.5525 31.9218 20.4461 32.0798 20.3883 32.2575C20.3305 32.4353 20.3236 32.6257 20.3684 32.8071C20.4131 32.9886 20.5078 33.154 20.6416 33.2844L24.0999 36.6407L23.2873 41.3955C23.2559 41.5791 23.2764 41.7678 23.3464 41.9405C23.4164 42.1131 23.5331 42.2628 23.6835 42.3728C23.8339 42.4827 24.0119 42.5485 24.1977 42.5629C24.3834 42.5772 24.5695 42.5394 24.7349 42.4537L28.9983 40.2049L33.2693 42.45C33.4345 42.5364 33.6206 42.5748 33.8065 42.5611C33.9925 42.5474 34.1709 42.4821 34.3217 42.3725C34.4726 42.2629 34.5898 42.1134 34.6603 41.9408C34.7308 41.7682 34.7517 41.5793 34.7206 41.3955L33.9004 36.6407L37.355 33.2844C37.4888 33.1542 37.5835 32.9892 37.6284 32.808C37.6734 32.6268 37.6668 32.4367 37.6094 32.259C37.552 32.0814 37.4461 31.9233 37.3037 31.8026C37.1612 31.6819 36.9879 31.6035 36.8032 31.5761L32.0333 30.8845L29.9016 26.5568C29.8196 26.3918 29.6936 26.2526 29.5376 26.1546C29.3815 26.0565 29.2015 25.9997 29.0172 25.9975ZM28.9983 29.2592L30.4723 32.2338C30.5432 32.3794 30.6483 32.5056 30.7786 32.6017C30.909 32.6978 31.0607 32.761 31.2207 32.7856L34.509 33.2655L32.1278 35.5786C32.0127 35.6922 31.9267 35.832 31.8774 35.986C31.828 36.1401 31.8167 36.3037 31.8443 36.4631L32.4037 39.7324L29.467 38.1904C29.3231 38.1146 29.1629 38.0749 29.0002 38.0749C28.8375 38.0749 28.6773 38.1146 28.5334 38.1904L25.5967 39.7324L26.156 36.4631C26.1832 36.3034 26.1713 36.1396 26.1213 35.9856C26.0713 35.8315 25.9846 35.6919 25.8688 35.5786L23.4914 33.2655L26.7797 32.7856C26.9404 32.7615 27.0929 32.6987 27.2239 32.6025C27.355 32.5064 27.4606 32.3799 27.5318 32.2338L28.9983 29.2592Z" fill="#EF3340"/>
</svg>
