<svg width="64" height="64" viewBox="0 0 64 64" fill="none" xmlns="http://www.w3.org/2000/svg">
<circle cx="18.1875" cy="24.188" r="9.1875" stroke="#EF3340" stroke-width="2"/>
<path d="M32.5938 27.3986C32.8519 27.3988 33.1 27.299 33.286 27.1202L39.7415 20.9274L46.4296 26.1957C46.6051 26.3339 46.8217 26.4094 47.0451 26.4101C47.2684 26.4108 47.4856 26.3367 47.662 26.1997L56.9965 18.9454L56.6761 23.1097C56.666 23.2406 56.6818 23.3723 56.7226 23.4971C56.7634 23.6219 56.8284 23.7375 56.9139 23.8372C56.9994 23.9369 57.1036 24.0188 57.2207 24.0782C57.3379 24.1376 57.4655 24.1734 57.5965 24.1834C57.6226 24.1854 57.6485 24.1864 57.6743 24.1864C57.9261 24.1861 58.1685 24.0909 58.3531 23.9197C58.5377 23.7486 58.6509 23.5141 58.6702 23.2631L59.1643 16.8387C59.1744 16.7073 59.1585 16.5752 59.1174 16.45C59.0763 16.3248 59.0108 16.209 58.9248 16.1092C58.8387 16.0093 58.7338 15.9275 58.6161 15.8684C58.4983 15.8092 58.37 15.7739 58.2386 15.7646L51.3201 15.2704C51.1887 15.2603 51.0566 15.2762 50.9313 15.3173C50.8061 15.3584 50.6902 15.4238 50.5903 15.5098C50.4905 15.5959 50.4086 15.7008 50.3495 15.8186C50.2903 15.9364 50.255 16.0647 50.2456 16.1961C50.2362 16.3276 50.2529 16.4596 50.2947 16.5846C50.3365 16.7096 50.4026 16.8251 50.4892 16.9245C50.5758 17.0239 50.6812 17.1051 50.7993 17.1636C50.9174 17.2221 51.0459 17.2567 51.1775 17.2653L55.5016 17.5742L47.0525 24.1404L40.2956 18.8179C40.1061 18.6687 39.869 18.593 39.6281 18.6047C39.3872 18.6165 39.1587 18.7149 38.9846 18.8819L31.9015 25.6769C31.7575 25.8151 31.6581 25.9932 31.6161 26.1882C31.5741 26.3833 31.5915 26.5865 31.666 26.7717C31.7404 26.9568 31.8686 27.1155 32.0339 27.2272C32.1993 27.3389 32.3943 27.3986 32.5938 27.3986Z" fill="#EF3340"/>
<path d="M13.943 22.5005C13.943 22.7658 14.0484 23.0201 14.2359 23.2077C14.4235 23.3952 14.6778 23.5005 14.943 23.5005H18.375C18.21 23.7617 17.9832 23.9781 17.7147 24.1307C17.4461 24.2834 17.1441 24.3674 16.8353 24.3755H14.943C14.7437 24.3729 14.5482 24.4306 14.3823 24.5412C14.2164 24.6517 14.0879 24.8099 14.0136 24.9949C13.9392 25.1798 13.9227 25.383 13.966 25.5776C14.0093 25.7721 14.1105 25.9491 14.2563 26.085L18.9867 30.5522C19.1801 30.7321 19.4369 30.8282 19.701 30.8196C19.9651 30.8109 20.215 30.6982 20.3963 30.506C20.5776 30.3138 20.6756 30.0577 20.6688 29.7936C20.662 29.5294 20.5511 29.2787 20.3602 29.0961L17.4117 26.3024C18.1514 26.1961 18.8431 25.8733 19.3999 25.3747C19.9566 24.8762 20.3535 24.2241 20.5405 23.5005H21.557C21.8222 23.5005 22.0766 23.3952 22.2641 23.2077C22.4517 23.0201 22.557 22.7658 22.557 22.5005C22.557 22.2353 22.4517 21.981 22.2641 21.7934C22.0766 21.6059 21.8222 21.5005 21.557 21.5005H20.5403C20.4608 21.2505 20.3474 21.0005 20.2038 20.6255H21.557C21.8222 20.6255 22.0766 20.5202 22.2641 20.3327C22.4517 20.1451 22.557 19.8908 22.557 19.6255C22.557 19.3603 22.4517 19.106 22.2641 18.9184C22.0766 18.7309 21.8222 18.6255 21.557 18.6255H14.943C14.6778 18.6255 14.4235 18.7309 14.2359 18.9184C14.0484 19.106 13.943 19.3603 13.943 19.6255C13.943 19.8908 14.0484 20.1451 14.2359 20.3327C14.4235 20.5202 14.6778 20.6255 14.943 20.6255H16.8357C17.1444 20.6337 17.4463 20.7178 17.7148 20.8704C17.9833 21.0231 18.2101 21.2395 18.375 21.5005H14.943C14.6778 21.5005 14.4235 21.6059 14.2359 21.7934C14.0484 21.981 13.943 22.2353 13.943 22.5005Z" fill="#EF3340"/>
<path d="M2.28564 56.2862H10.2856M61.7142 56.2862H55.4285M55.4285 56.2862V31.572C55.4285 31.0197 54.9808 30.572 54.4285 30.572H46.4285C45.8762 30.572 45.4285 31.0197 45.4285 31.572V56.2862M55.4285 56.2862H45.4285M45.4285 56.2862H37.4285M37.4285 56.2862V36.1434C37.4285 35.5911 36.9808 35.1434 36.4285 35.1434H28.9999C28.4476 35.1434 27.9999 35.5911 27.9999 36.1434V56.2862M37.4285 56.2862H27.9999M27.9999 56.2862H19.4285M19.4285 56.2862V45.0005C19.4285 44.4482 18.9808 44.0005 18.4285 44.0005H11.2856C10.7334 44.0005 10.2856 44.4482 10.2856 45.0005V56.2862M19.4285 56.2862H10.2856" stroke="#EF3340" stroke-width="2"/>
</svg>
