<svg width="82" height="64" viewBox="0 0 82 64" fill="none" xmlns="http://www.w3.org/2000/svg">
<path d="M10.9333 1.25417C5.56059 1.25417 1.20435 5.77316 1.20435 11.351C1.20435 14.027 2.22935 16.5966 4.05299 18.4884C7.84549 22.4402 14.004 22.458 17.8136 18.5238C21.6232 14.5896 21.6403 8.20101 17.8478 4.24911C17.835 4.23582 17.8222 4.22253 17.8136 4.21367C15.9942 2.30861 13.5172 1.24531 10.9333 1.25417ZM10.9333 20.5573C6.03893 20.5573 2.05424 16.4282 2.05424 11.351C2.05424 6.2738 6.03893 2.14025 10.9333 2.14025C15.8277 2.14025 19.8081 6.26936 19.8081 11.3466C19.8081 16.4238 15.8277 20.5573 10.9333 20.5573Z" fill="#EF3340"/>
<path d="M13.5215 7.93074C13.5215 7.68707 13.3293 7.4877 13.0944 7.4877H8.77232C8.53743 7.4877 8.34524 7.68707 8.34524 7.93074C8.34524 8.17441 8.53743 8.37378 8.77232 8.37378H10.0109C10.6301 8.37821 11.1768 8.7858 11.3733 9.39276H8.77232C8.53743 9.39276 8.34524 9.59213 8.34524 9.8358C8.34524 10.0795 8.53743 10.2788 8.77232 10.2788H11.3733C11.3049 10.5092 11.1811 10.7219 11.0188 10.8947C10.754 11.1782 10.391 11.3377 10.0109 11.3421H8.77232C8.54597 11.3333 8.35378 11.5193 8.34524 11.7542C8.34097 11.8782 8.38795 12.0023 8.47763 12.0864L11.5697 15.1168C11.7406 15.2852 12.0139 15.2763 12.1719 15.0947C12.3299 14.9263 12.3257 14.6561 12.1634 14.4921C12.1591 14.4877 12.1548 14.4877 12.1548 14.4833L9.8443 12.2282H10.0066C10.613 12.2238 11.1939 11.9712 11.621 11.5238C11.9498 11.1871 12.1719 10.7529 12.2488 10.2788H13.0944C13.3293 10.2788 13.5215 10.0795 13.5215 9.8358C13.5215 9.59213 13.3293 9.39276 13.0944 9.39276H12.2488C12.189 9.01618 12.0267 8.66175 11.7833 8.37378H13.0901C13.3293 8.37378 13.5215 8.17441 13.5215 7.93074Z" fill="#EF3340"/>
<path d="M10.9334 3.62C6.8249 3.62 3.48511 7.08455 3.48511 11.3466C3.48511 15.6086 6.8249 19.0732 10.9334 19.0732C15.042 19.0732 18.3818 15.6086 18.3818 11.3466C18.3818 7.08455 15.042 3.62 10.9334 3.62ZM10.9334 18.1871C7.29896 18.1871 4.33927 15.1168 4.33927 11.3466C4.33927 7.57632 7.29896 4.50607 10.9334 4.50607C14.5679 4.50607 17.5276 7.57632 17.5276 11.3466C17.5276 15.1168 14.5679 18.1871 10.9334 18.1871Z" fill="#EF3340"/>
<path d="M71.0671 5.30496C65.6944 5.30496 61.3381 9.82394 61.3381 15.4018C61.3381 18.0777 62.3631 20.6474 64.1868 22.5391C67.9793 26.491 74.1378 26.5088 77.9474 22.5746C81.757 18.6404 81.7741 12.2518 77.9816 8.29989C77.9688 8.2866 77.9559 8.27331 77.9474 8.26445C76.128 6.35939 73.6509 5.2961 71.0671 5.30496ZM71.0671 24.6081C66.1727 24.6081 62.188 20.479 62.188 15.4018C62.188 10.3246 66.1727 6.19103 71.0671 6.19103C75.9615 6.19103 79.9419 10.3201 79.9419 15.3974C79.9419 20.4746 75.9615 24.6081 71.0671 24.6081Z" fill="#EF3340"/>
<path d="M73.6553 11.9815C73.6553 11.7378 73.4631 11.5385 73.2282 11.5385H68.9061C68.6712 11.5385 68.479 11.7378 68.479 11.9815C68.479 12.2252 68.6712 12.4246 68.9061 12.4246H70.1447C70.7639 12.429 71.3106 12.8366 71.507 13.4435H68.9061C68.6712 13.4435 68.479 13.6429 68.479 13.8866C68.479 14.1303 68.6712 14.3296 68.9061 14.3296H71.507C71.4387 14.56 71.3149 14.7727 71.1526 14.9454C70.8878 15.229 70.5248 15.3885 70.1447 15.3929H68.9061C68.6798 15.3841 68.4876 15.5701 68.479 15.8049C68.4748 15.929 68.5217 16.053 68.6114 16.1372L71.7035 19.1676C71.8743 19.336 72.1477 19.3271 72.3057 19.1454C72.4637 18.9771 72.4594 18.7068 72.2972 18.5429C72.2929 18.5385 72.2886 18.5385 72.2886 18.5341L69.9781 16.279H70.1404C70.7468 16.2746 71.3277 16.022 71.7548 15.5746C72.0836 15.2378 72.3057 14.8037 72.3826 14.3296H73.2282C73.4631 14.3296 73.6553 14.1303 73.6553 13.8866C73.6553 13.6429 73.4631 13.4435 73.2282 13.4435H72.3826C72.3228 13.067 72.1605 12.7125 71.917 12.4246H73.2239C73.4631 12.4246 73.6553 12.2252 73.6553 11.9815Z" fill="#EF3340"/>
<path d="M71.0672 7.67078C66.9587 7.67078 63.6189 11.1353 63.6189 15.3974C63.6189 19.6594 66.9587 23.1239 71.0672 23.1239C75.1758 23.1239 78.5156 19.6594 78.5156 15.3974C78.5156 11.1353 75.1758 7.67078 71.0672 7.67078ZM71.0672 22.2379C67.4327 22.2379 64.4731 19.1676 64.4731 15.3974C64.4731 11.6271 67.4327 8.55685 71.0672 8.55685C74.7017 8.55685 77.6614 11.6271 77.6614 15.3974C77.6614 19.1676 74.7017 22.2379 71.0672 22.2379Z" fill="#EF3340"/>
<path d="M39.8285 20.3755C29.0831 20.3755 20.3706 29.5749 20.3706 40.9298C20.3706 46.3772 22.4206 51.6083 26.0679 55.4594C33.6529 63.5043 45.97 63.5404 53.5891 55.5315C61.2083 47.5227 61.2425 34.5173 53.6575 26.4723C53.6318 26.4453 53.6062 26.4182 53.5891 26.4002C49.9504 22.522 44.9962 20.3575 39.8285 20.3755ZM39.8285 59.6712C30.0398 59.6712 22.0704 51.2655 22.0704 40.9298C22.0704 30.594 30.0398 22.1793 39.8285 22.1793C49.6173 22.1793 57.5781 30.585 57.5781 40.9208C57.5781 51.2565 49.6173 59.6712 39.8285 59.6712Z" fill="#EF3340"/>
<path d="M36.0769 40.236C36.2183 40.1562 36.3024 40.0056 36.3024 39.8434V38.4643H43.0129C44.3575 38.4643 45.4509 39.5892 45.4509 41.0089C45.4509 41.0823 45.4363 41.1376 45.4303 41.2097L48.1938 42.8765C48.3877 42.2838 48.4985 41.675 48.4985 41.0128C48.4985 37.8137 46.0428 35.2472 43.013 35.2472H36.3024V33.5122C36.3024 33.3493 36.2189 33.1994 36.0769 33.1196C35.9349 33.0397 35.763 33.0424 35.6235 33.1273L30.4231 36.2924C30.2889 36.3742 30.2073 36.5203 30.2073 36.678C30.2073 36.8357 30.2895 36.9818 30.4231 37.0634L35.6246 40.2286C35.7641 40.3142 35.9341 40.3161 36.0768 40.2364L36.0769 40.236Z" fill="#EF3340"/>
<path d="M48.8924 44.7759L43.6904 41.6239C43.5508 41.5389 43.3783 41.5357 43.2363 41.6155C43.0943 41.6946 43.0077 41.8446 43.0077 42.0067V43.6124H36.3092C34.9647 43.6124 33.8712 42.4283 33.8712 41.0086C33.8712 40.9024 33.8889 40.7865 33.9011 40.6836L31.1583 39.0091C30.9456 39.6281 30.8237 40.3168 30.8237 41.0125C30.8237 44.211 33.2795 46.8311 36.3093 46.8311H43.0077V48.3133C43.0077 48.4754 43.0943 48.6254 43.2363 48.7045C43.3782 48.7837 43.5519 48.7805 43.691 48.6962L48.8925 45.5441C49.0265 45.4623 49.1083 45.3169 49.1083 45.1599C49.1083 45.0034 49.0266 44.8573 48.8926 44.7762L48.8924 44.7759Z" fill="#EF3340"/>
<path d="M39.8285 25.1916C31.6115 25.1916 24.9319 32.2445 24.9319 40.9207C24.9319 49.597 31.6115 56.6498 39.8285 56.6498C48.0456 56.6498 54.7252 49.597 54.7252 40.9207C54.7252 32.2445 48.0456 25.1916 39.8285 25.1916ZM39.8285 54.846C32.5596 54.846 26.6402 48.5959 26.6402 40.9207C26.6402 33.2456 32.5596 26.9954 39.8285 26.9954C47.0975 26.9954 53.0169 33.2456 53.0169 40.9207C53.0169 48.5959 47.0975 54.846 39.8285 54.846Z" fill="#EF3340"/>
</svg>
