<svg width="36" height="36" viewBox="0 0 36 36" fill="none" xmlns="http://www.w3.org/2000/svg">
<rect width="36" height="36" rx="8" fill="#0765F2"/>
<path d="M18.0001 9.3623C13.2287 9.3623 9.36011 13.2309 9.36011 18.0023C9.36011 22.3338 12.5511 25.9108 16.7084 26.5358V20.2919H14.5707V18.021H16.7084V16.5097C16.7084 14.0077 17.9274 12.9097 20.0067 12.9097C21.0025 12.9097 21.5295 12.9839 21.7787 13.017V14.9992H20.3603C19.4775 14.9992 19.1694 15.8365 19.1694 16.7797V18.021H21.7563L21.4057 20.2919H19.1694V26.5538C23.3864 25.9821 26.6401 22.3763 26.6401 18.0023C26.6401 13.2309 22.7715 9.3623 18.0001 9.3623Z" fill="white"/>
</svg>
