<svg width="36" height="36" viewBox="0 0 36 36" fill="none" xmlns="http://www.w3.org/2000/svg">
<rect width="36" height="36" rx="8" fill="#E30052"/>
<path d="M14.3987 9.3623C11.6202 9.3623 9.36011 11.6245 9.36011 14.4037V21.6037C9.36011 24.3822 11.6223 26.6423 14.4015 26.6423H21.6015C24.38 26.6423 26.6401 24.3801 26.6401 21.6009V14.4009C26.6401 11.6224 24.3779 9.3623 21.5987 9.3623H14.3987ZM23.0401 12.2423C23.4375 12.2423 23.7601 12.5649 23.7601 12.9623C23.7601 13.3597 23.4375 13.6823 23.0401 13.6823C22.6427 13.6823 22.3201 13.3597 22.3201 12.9623C22.3201 12.5649 22.6427 12.2423 23.0401 12.2423ZM18.0001 13.6823C20.3826 13.6823 22.3201 15.6198 22.3201 18.0023C22.3201 20.3848 20.3826 22.3223 18.0001 22.3223C15.6176 22.3223 13.6801 20.3848 13.6801 18.0023C13.6801 15.6198 15.6176 13.6823 18.0001 13.6823ZM18.0001 15.1223C17.2363 15.1223 16.5037 15.4257 15.9636 15.9658C15.4235 16.5059 15.1201 17.2385 15.1201 18.0023C15.1201 18.7661 15.4235 19.4987 15.9636 20.0388C16.5037 20.5789 17.2363 20.8823 18.0001 20.8823C18.7639 20.8823 19.4965 20.5789 20.0366 20.0388C20.5767 19.4987 20.8801 18.7661 20.8801 18.0023C20.8801 17.2385 20.5767 16.5059 20.0366 15.9658C19.4965 15.4257 18.7639 15.1223 18.0001 15.1223Z" fill="white"/>
</svg>
