<svg width="28" height="28" viewBox="0 0 28 28" fill="none" xmlns="http://www.w3.org/2000/svg">
<rect width="28" height="28" rx="14" fill="#EF3340" fill-opacity="0.15"/>
<path d="M18.7067 18.4466L17.28 15.6L15.8533 18.4466" stroke="#EF3340" stroke-width="0.75" stroke-linecap="round" stroke-linejoin="round"/>
<path d="M16.1133 17.94H18.46" stroke="#EF3340" stroke-width="0.75" stroke-linecap="round" stroke-linejoin="round"/>
<path d="M17.28 20.6667C15.4133 20.6667 13.8933 19.1533 13.8933 17.28C13.8933 15.4133 15.4067 13.8933 17.28 13.8933C19.1467 13.8933 20.6667 15.4066 20.6667 17.28C20.6667 19.1533 19.1533 20.6667 17.28 20.6667Z" stroke="#EF3340" stroke-linecap="round" stroke-linejoin="round"/>
<path d="M9.34667 7.33334H11.96C13.34 7.33334 14.0067 8.00002 13.9733 9.34669V11.96C14.0067 13.34 13.34 14.0067 11.96 13.9734H9.34667C8.00001 14 7.33334 13.3333 7.33334 11.9533V9.34002C7.33334 8.00002 8.00001 7.33334 9.34667 7.33334Z" stroke="#EF3340" stroke-linecap="round" stroke-linejoin="round"/>
<path d="M12.15 9.18604V9.61862H11.7285V12.15H11.2386V11.0005L10.7943 10.9965C10.8019 11.0472 10.8057 11.0966 10.8057 11.1447C10.8057 11.3796 10.7348 11.5679 10.593 11.7094C10.4513 11.8509 10.2627 11.9217 10.0272 11.9217C9.85506 11.9217 9.7019 11.887 9.56772 11.8176C9.43608 11.7481 9.33355 11.6507 9.26013 11.5252C9.18671 11.397 9.15 11.2515 9.15 11.0886H9.6095C9.6095 11.2007 9.64494 11.2942 9.71582 11.369C9.78671 11.441 9.87912 11.4771 9.99304 11.4771C10.107 11.4771 10.1968 11.4424 10.2627 11.373C10.3285 11.3009 10.3614 11.2087 10.3614 11.0966C10.3614 10.9871 10.326 10.895 10.2551 10.8202C10.1842 10.7428 10.0791 10.7041 9.93987 10.7041H9.77658V10.2875H9.93987C10.0614 10.2875 10.1563 10.2541 10.2247 10.1874C10.293 10.1206 10.3272 10.0392 10.3272 9.94305C10.3272 9.83624 10.2943 9.7508 10.2285 9.68671C10.1652 9.61995 10.0854 9.58658 9.98924 9.58658C9.88544 9.58658 9.79937 9.61862 9.73101 9.6827C9.66266 9.74679 9.62848 9.82957 9.62848 9.93104H9.17658C9.17658 9.77616 9.21076 9.63998 9.27912 9.52249C9.34747 9.40233 9.44241 9.31021 9.56393 9.24612C9.68798 9.18204 9.82975 9.14999 9.98924 9.14999C10.2222 9.14999 10.4095 9.21541 10.5513 9.34626C10.693 9.4771 10.7639 9.652 10.7639 9.87096C10.7639 10.0178 10.7272 10.146 10.6538 10.2555C10.5804 10.3623 10.4766 10.437 10.3424 10.4798V10.4878C10.4082 10.5011 10.4715 10.5292 10.5323 10.5719H11.2386V9.18604H12.15Z" fill="#EF3340" stroke="#EF3340" stroke-width="0.2"/>
<path d="M7.33334 16C7.33334 18.58 9.42 20.6667 12 20.6667L11.3 19.5" stroke="#EF3340" stroke-linecap="round" stroke-linejoin="round"/>
<path d="M20.6667 12C20.6667 9.42001 18.58 7.33334 16 7.33334L16.7 8.50001" stroke="#EF3340" stroke-linecap="round" stroke-linejoin="round"/>
</svg>
