<svg width="20" height="18" viewBox="0 0 20 18" fill="none" xmlns="http://www.w3.org/2000/svg">
<path d="M0.847921 1.80282H19.1361C19.6099 1.80282 20 1.40687 20 0.897206C20 0.395952 19.6099 0 19.1361 0H0.847921C0.374202 0 0 0.395952 0 0.897206C0 1.40687 0.374202 1.80282 0.847921 1.80282ZM0.847921 7.18074H11.7249C12.1986 7.18074 12.5807 6.78479 12.5807 6.27327C12.5807 5.77202 12.1986 5.37607 11.7249 5.37607H0.847921C0.374202 5.37607 0 5.77202 0 6.27327C0 6.78479 0.374202 7.18074 0.847921 7.18074ZM0.847921 12.5568H19.1361C19.6099 12.5568 20 12.1524 20 11.6512C20 11.1499 19.6099 10.7521 19.1361 10.7521H0.847921C0.374202 10.7521 0 11.1499 0 11.6512C0 12.1524 0.374202 12.5568 0.847921 12.5568ZM0.847921 17.9245H11.7249C12.1986 17.9245 12.5807 17.5285 12.5807 17.0273C12.5807 16.526 12.1986 16.1216 11.7249 16.1216H0.847921C0.374202 16.1216 0 16.526 0 17.0273C0 17.5285 0.374202 17.9245 0.847921 17.9245Z" fill="#EF3340"/>
</svg>
