<svg width="36" height="36" viewBox="0 0 36 36" fill="none" xmlns="http://www.w3.org/2000/svg">
<rect width="36" height="36" rx="8" fill="#034AA7"/>
<path d="M23.6251 9.89941H12.3751C11.0107 9.89941 9.90015 11.01 9.90015 12.3744V23.6244C9.90015 24.9888 11.0107 26.0994 12.3751 26.0994H23.6251C24.9895 26.0994 26.1001 24.9888 26.1001 23.6244V12.3744C26.1001 11.01 24.9895 9.89941 23.6251 9.89941ZM15.3001 22.4994C15.3001 22.7483 15.099 22.9494 14.8501 22.9494H13.5001C13.2513 22.9494 13.0501 22.7483 13.0501 22.4994V16.6494C13.0501 16.4006 13.2513 16.1994 13.5001 16.1994H14.8501C15.099 16.1994 15.3001 16.4006 15.3001 16.6494V22.4994ZM14.1751 15.2994C13.5537 15.2994 13.0501 14.7959 13.0501 14.1744C13.0501 13.553 13.5537 13.0494 14.1751 13.0494C14.7966 13.0494 15.3001 13.553 15.3001 14.1744C15.3001 14.7959 14.7966 15.2994 14.1751 15.2994ZM22.9501 22.4994C22.9501 22.7483 22.749 22.9494 22.5001 22.9494H21.1501C20.9013 22.9494 20.7001 22.7483 20.7001 22.4994V19.1244C20.7001 18.5039 20.1957 17.9994 19.5751 17.9994C18.9546 17.9994 18.4501 18.5039 18.4501 19.1244V22.4994C18.4501 22.7483 18.249 22.9494 18.0001 22.9494H16.6501C16.4013 22.9494 16.2001 22.7483 16.2001 22.4994V16.6494C16.2001 16.4006 16.4013 16.1994 16.6501 16.1994H18.0001C18.249 16.1994 18.4501 16.4006 18.4501 16.6494V16.8929C18.9285 16.4631 19.558 16.1994 20.2501 16.1994C21.7392 16.1994 22.9501 17.4104 22.9501 18.8994V22.4994Z" fill="white"/>
</svg>
