<svg width="22" height="22" viewBox="0 0 22 22" fill="none" xmlns="http://www.w3.org/2000/svg">
<path d="M19.6415 18.7136C20.3922 17.764 20.8438 16.5676 20.8438 15.2656C20.8438 12.1898 18.3415 9.6875 15.2656 9.6875C12.1898 9.6875 9.6875 12.1898 9.6875 15.2656C9.6875 18.3415 12.1898 20.8438 15.2656 20.8438C16.567 20.8438 17.764 20.3922 18.7136 19.6415L19.7235 20.6515C19.8515 20.7794 20.0195 20.8438 20.1875 20.8438C20.3555 20.8438 20.5235 20.7794 20.6515 20.6515C20.9081 20.3949 20.9081 19.9801 20.6515 19.7235L19.6415 18.7136ZM15.2656 19.5312C12.9136 19.5312 11 17.6176 11 15.2656C11 12.9136 12.9136 11 15.2656 11C17.6176 11 19.5312 12.9136 19.5312 15.2656C19.5312 17.6176 17.6176 19.5312 15.2656 19.5312Z" fill="#EF3340"/>
<path d="M12.9688 13.2969C12.6058 13.2969 12.3125 13.5909 12.3125 13.9531V16.5781C12.3125 16.9404 12.6058 17.2344 12.9688 17.2344C13.3317 17.2344 13.625 16.9404 13.625 16.5781V13.9531C13.625 13.5909 13.3317 13.2969 12.9688 13.2969ZM15.5938 13.2969C15.2308 13.2969 14.9375 13.5909 14.9375 13.9531V16.5781C14.9375 16.9404 15.2308 17.2344 15.5938 17.2344C15.9567 17.2344 16.25 16.9404 16.25 16.5781V13.9531C16.25 13.5909 15.9567 13.2969 15.5938 13.2969ZM17.5625 13.2969C17.1996 13.2969 16.9062 13.5909 16.9062 13.9531V16.5781C16.9062 16.9404 17.1996 17.2344 17.5625 17.2344C17.9254 17.2344 18.2188 16.9404 18.2188 16.5781V13.9531C18.2188 13.5909 17.9254 13.2969 17.5625 13.2969Z" fill="#EF3340"/>
<path d="M9.6875 19.5312H2.46875V2.46875H7.71875V5.75C7.71875 6.11225 8.01209 6.40625 8.375 6.40625H12.3125C12.6754 6.40625 12.9688 6.11225 12.9688 5.75V2.46875H18.2188V9.03125C18.2188 9.3935 18.5121 9.6875 18.875 9.6875C19.2379 9.6875 19.5312 9.3935 19.5312 9.03125V1.8125C19.5312 1.45025 19.2379 1.15625 18.875 1.15625H12.3125H8.375H1.8125C1.44959 1.15625 1.15625 1.45025 1.15625 1.8125V20.1875C1.15625 20.5497 1.44959 20.8438 1.8125 20.8438H9.6875C10.0504 20.8438 10.3438 20.5497 10.3438 20.1875C10.3438 19.8253 10.0504 19.5312 9.6875 19.5312ZM9.03125 2.46875H11.6562V5.09375H9.03125V2.46875Z" fill="#EF3340"/>
<path d="M4.4375 16.25C4.07459 16.25 3.78125 16.544 3.78125 16.9062C3.78125 17.2685 4.07459 17.5625 4.4375 17.5625H5.09375C5.45666 17.5625 5.75 17.2685 5.75 16.9062C5.75 16.544 5.45666 16.25 5.09375 16.25H4.4375ZM7.0625 16.25C6.69959 16.25 6.40625 16.544 6.40625 16.9062C6.40625 17.2685 6.69959 17.5625 7.0625 17.5625H7.71875C8.08166 17.5625 8.375 17.2685 8.375 16.9062C8.375 16.544 8.08166 16.25 7.71875 16.25H7.0625Z" fill="#EF3340"/>
</svg>
