<svg width="143" height="32" viewBox="0 0 143 32" fill="none" xmlns="http://www.w3.org/2000/svg">
<path d="M46.72 9.37H46.58C46.5352 9.37089 46.4915 9.38333 46.4529 9.40611C46.4144 9.42888 46.3824 9.46122 46.36 9.5L41 18.14L35.53 9.5C35.5053 9.46107 35.4714 9.42884 35.4313 9.40616C35.3912 9.38348 35.3461 9.37106 35.3 9.37H35.16C35.0875 9.37259 35.0188 9.40323 34.9684 9.45546C34.9181 9.50769 34.89 9.57744 34.89 9.65V22.31C34.89 22.3826 34.9181 22.4523 34.9684 22.5045C35.0188 22.5568 35.0875 22.5874 35.16 22.59H37C37.0725 22.5874 37.1412 22.5568 37.1916 22.5045C37.2419 22.4523 37.27 22.3826 37.27 22.31V16.43L40.69 22.25C40.7166 22.2892 40.7523 22.3213 40.7942 22.3434C40.836 22.3656 40.8827 22.3772 40.93 22.3772C40.9773 22.3772 41.024 22.3656 41.0658 22.3434C41.1077 22.3213 41.1434 22.2892 41.17 22.25L44.58 16.44V22.31C44.58 22.3826 44.6081 22.4523 44.6584 22.5045C44.7088 22.5568 44.7775 22.5874 44.85 22.59H46.7C46.7725 22.5874 46.8412 22.5568 46.8916 22.5045C46.9419 22.4523 46.97 22.3826 46.97 22.31V9.65C46.9704 9.58065 46.9451 9.51363 46.8989 9.4619C46.8527 9.41017 46.7889 9.37742 46.72 9.37Z" fill="#EE414A"/>
<path d="M51.15 9.64001H49.3C49.2275 9.64261 49.1588 9.67325 49.1084 9.72548C49.0581 9.77771 49.03 9.84745 49.03 9.92001V22.31C49.03 22.3826 49.0581 22.4523 49.1084 22.5046C49.1588 22.5568 49.2275 22.5874 49.3 22.59H51.15C51.2225 22.5874 51.2912 22.5568 51.3416 22.5046C51.3919 22.4523 51.42 22.3826 51.42 22.31V9.92001C51.42 9.84745 51.3919 9.77771 51.3416 9.72548C51.2912 9.67325 51.2225 9.64261 51.15 9.64001Z" fill="#EE414A"/>
<path d="M58.12 14.89L57.62 14.66C56.4 14.13 55.76 13.82 55.76 13.19C55.8148 12.7969 56.0213 12.4408 56.3352 12.1978C56.6492 11.9549 57.0457 11.8444 57.44 11.89C57.8138 11.8817 58.182 11.9823 58.4998 12.1793C58.8175 12.3764 59.0712 12.6615 59.23 13C59.243 13.0376 59.2654 13.0711 59.2952 13.0974C59.325 13.1237 59.3611 13.1418 59.4 13.15C59.4353 13.1693 59.4748 13.1794 59.515 13.1794C59.5552 13.1794 59.5947 13.1693 59.63 13.15L61 12.15C61.0494 12.1103 61.0855 12.0565 61.1034 11.9957C61.1213 11.9349 61.1201 11.8701 61.1 11.81C60.8245 11.0693 60.3179 10.437 59.6552 10.0065C58.9924 9.57609 58.2087 9.37044 57.42 9.42001C56.906 9.38615 56.3905 9.45658 55.9045 9.62707C55.4185 9.79756 54.9719 10.0646 54.5917 10.4121C54.2115 10.7596 53.9055 11.1804 53.6921 11.6492C53.4787 12.118 53.3624 12.6251 53.35 13.14C53.35 15.3 55.13 16.14 56.44 16.74C57.72 17.32 59.17 17.97 59.17 18.92C59.17 19.68 58.29 20.25 57.11 20.25C56.6212 20.2659 56.1377 20.1451 55.7137 19.9014C55.2898 19.6576 54.9422 19.3004 54.71 18.87C54.6915 18.8364 54.6657 18.8073 54.6346 18.7848C54.6035 18.7624 54.5677 18.747 54.53 18.74C54.4595 18.7111 54.3805 18.7111 54.31 18.74L52.85 19.84C52.7982 19.8823 52.7614 19.9402 52.7452 20.0051C52.729 20.0699 52.7342 20.1383 52.76 20.2C53.1581 20.9973 53.7793 21.6618 54.548 22.1127C55.3167 22.5637 56.1998 22.7816 57.09 22.74C59.73 22.74 61.57 21.14 61.57 18.84C61.57 16.54 59.81 15.66 58.12 14.89Z" fill="#EE414A"/>
<path d="M70.32 9.64001H62.13C62.0575 9.64261 61.9888 9.67325 61.9384 9.72548C61.8881 9.77771 61.86 9.84745 61.86 9.92001V11.85C61.8587 11.8863 61.8646 11.9225 61.8776 11.9564C61.8906 11.9903 61.9103 12.0213 61.9355 12.0474C61.9607 12.0736 61.9909 12.0944 62.0243 12.1086C62.0577 12.1227 62.0937 12.13 62.13 12.13H65V22.31C65 22.3826 65.0281 22.4523 65.0784 22.5046C65.1288 22.5568 65.1975 22.5874 65.27 22.59H67.13C67.2025 22.5874 67.2712 22.5568 67.3216 22.5046C67.3719 22.4523 67.4001 22.3826 67.4 22.31V12.13H70.3C70.3725 12.1274 70.4412 12.0968 70.4916 12.0446C70.5419 11.9923 70.57 11.9226 70.57 11.85V9.92001C70.5704 9.85067 70.5451 9.78365 70.4989 9.73192C70.4527 9.68019 70.3889 9.64744 70.32 9.64001V9.64001Z" fill="#EE414A"/>
<path d="M77.84 17.48C78.4952 17.1406 79.0438 16.6265 79.425 15.9947C79.8062 15.3629 80.0052 14.6379 80 13.9C80 12.7702 79.5512 11.6866 78.7523 10.8877C77.9534 10.0888 76.8698 9.64001 75.74 9.64001H72.09C72.0186 9.6405 71.9503 9.66927 71.9 9.72002C71.8495 9.77448 71.821 9.84574 71.82 9.92001V22.31C71.82 22.3826 71.8481 22.4523 71.8984 22.5046C71.9488 22.5568 72.0175 22.5874 72.09 22.59H74C74.0725 22.5874 74.1412 22.5568 74.1916 22.5046C74.2419 22.4523 74.27 22.3826 74.27 22.31V17.8H75.27L78.36 22.47C78.3854 22.5052 78.4183 22.5342 78.4564 22.555C78.4944 22.5758 78.5367 22.5877 78.58 22.59H80.86C80.91 22.5897 80.9589 22.5755 81.0012 22.549C81.0436 22.5225 81.0778 22.4848 81.1 22.44C81.1273 22.3948 81.1418 22.3429 81.1418 22.29C81.1418 22.2371 81.1273 22.1853 81.1 22.14L77.84 17.48ZM77.57 13.86C77.5623 14.3244 77.3744 14.7676 77.046 15.096C76.7176 15.4244 76.2744 15.6123 75.81 15.62H74.21V12.13H75.8C76.0305 12.1247 76.2598 12.1655 76.4743 12.25C76.6889 12.3346 76.8843 12.4612 77.0492 12.6224C77.2141 12.7835 77.3452 12.9761 77.4346 13.1886C77.524 13.4011 77.5701 13.6294 77.57 13.86V13.86Z" fill="#EE414A"/>
<path d="M90 9.78001C89.9764 9.73712 89.9417 9.70143 89.8994 9.67677C89.8571 9.65211 89.8089 9.63941 89.76 9.64001H87.7C87.6511 9.63941 87.6029 9.65211 87.5606 9.67677C87.5183 9.70143 87.4836 9.73712 87.46 9.78001L85 14.29L82.48 9.78001C82.459 9.73716 82.4262 9.70121 82.3855 9.67641C82.3447 9.6516 82.2977 9.63897 82.25 9.64001H80.11C80.0628 9.64118 80.0167 9.65473 79.9763 9.6793C79.9359 9.70386 79.9027 9.73859 79.88 9.78001C79.8554 9.82258 79.8425 9.87086 79.8425 9.92001C79.8425 9.96916 79.8554 10.0175 79.88 10.06L83.76 17.06V22.28C83.76 22.3526 83.7881 22.4223 83.8384 22.4746C83.8888 22.5268 83.9575 22.5574 84.03 22.56H85.87C85.9425 22.5574 86.0112 22.5268 86.0616 22.4746C86.1119 22.4223 86.14 22.3526 86.14 22.28V17.09L90.02 10.09C90.0476 10.0421 90.0605 9.98715 90.0569 9.93199C90.0534 9.87682 90.0336 9.82394 90 9.78001V9.78001Z" fill="#EE414A"/>
<path d="M90.33 19.77C90.0129 19.756 89.6989 19.8373 89.4284 20.0033C89.1579 20.1693 88.9432 20.4124 88.8121 20.7015C88.6809 20.9905 88.6393 21.3122 88.6925 21.6251C88.7457 21.9379 88.8914 22.2278 89.1107 22.4572C89.33 22.6866 89.613 22.8451 89.9232 22.9124C90.2333 22.9796 90.5565 22.9525 90.8512 22.8345C91.1458 22.7165 91.3984 22.513 91.5764 22.2502C91.7544 21.9874 91.8497 21.6774 91.85 21.36C91.8529 20.9494 91.6958 20.5539 91.4121 20.2571C91.1284 19.9603 90.7403 19.7856 90.33 19.77V19.77Z" fill="#EE414A"/>
<path d="M98.66 14.89L98.16 14.66C96.94 14.13 96.3 13.82 96.3 13.19C96.3547 12.793 96.5641 12.4336 96.8824 12.1901C97.2008 11.9467 97.6025 11.8388 98 11.89C98.3704 11.8856 98.7343 11.988 99.0482 12.1848C99.362 12.3816 99.6126 12.6646 99.77 13C99.783 13.0376 99.8054 13.0711 99.8352 13.0974C99.865 13.1237 99.9011 13.1418 99.94 13.15C99.9753 13.1693 100.015 13.1794 100.055 13.1794C100.095 13.1794 100.135 13.1693 100.17 13.15L101.54 12.15C101.589 12.1103 101.626 12.0565 101.643 11.9957C101.661 11.9349 101.66 11.8701 101.64 11.81C101.367 11.0762 100.866 10.4487 100.211 10.0188C99.5568 9.589 98.7821 9.37922 98 9.42001C97.486 9.38615 96.9705 9.45658 96.4845 9.62707C95.9984 9.79756 95.5519 10.0646 95.1717 10.4121C94.7915 10.7596 94.4855 11.1804 94.2721 11.6492C94.0587 12.118 93.9424 12.6251 93.93 13.14C93.93 15.31 95.71 16.14 97.02 16.74C98.3 17.32 99.75 17.97 99.75 18.92C99.75 19.68 98.87 20.25 97.69 20.25C97.2012 20.2659 96.7177 20.1451 96.2937 19.9014C95.8698 19.6576 95.5222 19.3004 95.29 18.87C95.2715 18.8364 95.2457 18.8073 95.2146 18.7848C95.1835 18.7624 95.1477 18.747 95.11 18.74C95.0395 18.7111 94.9605 18.7111 94.89 18.74L93.43 19.84C93.377 19.8814 93.34 19.94 93.3254 20.0057C93.3108 20.0713 93.3195 20.14 93.35 20.2C93.7454 20.9973 94.3646 21.6622 95.1318 22.1133C95.899 22.5644 96.781 22.7821 97.67 22.74C100.31 22.74 102.15 21.14 102.15 18.84C102.15 16.54 100.35 15.66 98.66 14.89Z" fill="#EE414A"/>
<path d="M111.13 11.85V9.92001C111.13 9.84745 111.102 9.77771 111.052 9.72548C111.001 9.67325 110.933 9.64261 110.86 9.64001H102.67C102.597 9.64261 102.529 9.67325 102.478 9.72548C102.428 9.77771 102.4 9.84745 102.4 9.92001V11.85C102.399 11.8863 102.405 11.9225 102.418 11.9564C102.431 11.9903 102.45 12.0213 102.475 12.0474C102.501 12.0736 102.531 12.0944 102.564 12.1086C102.598 12.1227 102.634 12.13 102.67 12.13H105.56V22.31C105.56 22.3826 105.588 22.4523 105.638 22.5046C105.689 22.5568 105.757 22.5874 105.83 22.59H107.69C107.763 22.5874 107.831 22.5568 107.882 22.5046C107.932 22.4523 107.96 22.3826 107.96 22.31V12.13H110.86C110.933 12.1274 111.001 12.0968 111.052 12.0446C111.102 11.9923 111.13 11.9226 111.13 11.85V11.85Z" fill="#EE414A"/>
<path d="M117.28 9.42001C115.946 9.35614 114.623 9.69305 113.482 10.3874C112.341 11.0817 111.434 12.1016 110.878 13.3158C110.322 14.5301 110.142 15.883 110.361 17.2005C110.58 18.518 111.189 19.7397 112.108 20.7084C113.028 21.677 114.216 22.3482 115.521 22.6356C116.825 22.923 118.185 22.8134 119.427 22.321C120.668 21.8285 121.734 20.9757 122.487 19.8723C123.239 18.769 123.644 17.4656 123.65 16.13C123.69 14.3968 123.043 12.7181 121.849 11.4608C120.656 10.2035 119.013 9.46975 117.28 9.42001ZM117.28 20.26C116.451 20.2919 115.631 20.0751 114.926 19.6374C114.221 19.1996 113.663 18.5611 113.323 17.8037C112.984 17.0463 112.879 16.2048 113.022 15.3873C113.165 14.5698 113.549 13.8137 114.125 13.2162C114.701 12.6186 115.442 12.207 116.254 12.0343C117.066 11.8615 117.91 11.9354 118.68 12.2466C119.449 12.5577 120.108 13.0919 120.571 13.7803C121.035 14.4688 121.281 15.2801 121.28 16.11C121.292 16.6465 121.197 17.1801 121.002 17.6798C120.806 18.1796 120.514 18.6356 120.141 19.0215C119.768 19.4074 119.322 19.7156 118.829 19.9282C118.337 20.1407 117.807 20.2535 117.27 20.26H117.28Z" fill="#EE414A"/>
<path d="M130.84 17.48C131.495 17.1406 132.044 16.6265 132.425 15.9947C132.806 15.3629 133.005 14.6379 133 13.9C132.997 12.7693 132.546 11.6857 131.746 10.8871C130.945 10.0885 129.861 9.64001 128.73 9.64001H125.06C124.989 9.6405 124.92 9.66927 124.87 9.72002C124.819 9.77448 124.791 9.84574 124.79 9.92001V22.31C124.79 22.3826 124.818 22.4523 124.868 22.5046C124.919 22.5568 124.987 22.5874 125.06 22.59H126.91C126.983 22.5874 127.051 22.5568 127.102 22.5046C127.152 22.4523 127.18 22.3826 127.18 22.31V17.8H128.18L131.28 22.47C131.304 22.5063 131.337 22.5362 131.375 22.5571C131.414 22.578 131.456 22.5893 131.5 22.59H133.78C133.83 22.5886 133.878 22.5739 133.92 22.5476C133.963 22.5212 133.997 22.4841 134.02 22.44C134.045 22.3938 134.057 22.3423 134.057 22.29C134.057 22.2377 134.045 22.1862 134.02 22.14L130.84 17.48ZM130.57 13.86C130.564 14.3124 130.385 14.7454 130.07 15.07C129.908 15.2425 129.713 15.3802 129.497 15.4747C129.28 15.5693 129.046 15.6187 128.81 15.62H127.21V12.13H128.8C129.031 12.1247 129.26 12.1655 129.474 12.25C129.689 12.3346 129.884 12.4612 130.049 12.6224C130.214 12.7835 130.345 12.9761 130.435 13.1886C130.524 13.4011 130.57 13.6294 130.57 13.86Z" fill="#EE414A"/>
<path d="M142.42 12.12C142.493 12.1174 142.561 12.0868 142.612 12.0346C142.662 11.9823 142.69 11.9126 142.69 11.84V9.92001C142.69 9.84745 142.662 9.77771 142.612 9.72548C142.561 9.67325 142.493 9.64261 142.42 9.64001H135.42C135.347 9.64261 135.279 9.67325 135.228 9.72548C135.178 9.77771 135.15 9.84745 135.15 9.92001V22.31C135.15 22.3826 135.178 22.4523 135.228 22.5046C135.279 22.5568 135.347 22.5874 135.42 22.59H142.42C142.493 22.5874 142.561 22.5568 142.612 22.5046C142.662 22.4523 142.69 22.3826 142.69 22.31V20.37C142.691 20.3337 142.685 20.2975 142.672 20.2636C142.659 20.2297 142.64 20.1987 142.615 20.1726C142.589 20.1465 142.559 20.1257 142.526 20.1115C142.492 20.0973 142.456 20.09 142.42 20.09H137.52V17.23H141.71C141.747 17.2287 141.783 17.2202 141.816 17.2049C141.85 17.1896 141.88 17.1679 141.905 17.141C141.93 17.114 141.95 17.0824 141.963 17.048C141.975 17.0135 141.981 16.9768 141.98 16.94V15C141.981 14.9632 141.975 14.9266 141.963 14.8921C141.95 14.8576 141.93 14.826 141.905 14.799C141.88 14.7721 141.85 14.7504 141.816 14.7351C141.783 14.7198 141.747 14.7113 141.71 14.71H137.52V12.11L142.42 12.12Z" fill="#EE414A"/>
<path d="M17 31.69C16.9151 31.6887 16.8313 31.6705 16.7535 31.6366C16.6756 31.6026 16.6054 31.5534 16.5467 31.492C16.4881 31.4306 16.4423 31.3581 16.4119 31.2788C16.3816 31.1994 16.3673 31.1149 16.37 31.03V8.41L14.47 6.8L12.57 8.41V31C12.5727 31.0849 12.5584 31.1694 12.5281 31.2488C12.4977 31.3281 12.4519 31.4006 12.3933 31.462C12.3346 31.5234 12.2644 31.5726 12.1865 31.6066C12.1087 31.6405 12.0249 31.6587 11.94 31.66H0.999999C0.912575 31.6628 0.82551 31.6476 0.744178 31.6154C0.662847 31.5832 0.588977 31.5347 0.527128 31.4729C0.465278 31.411 0.416764 31.3372 0.384578 31.2558C0.352393 31.1745 0.337221 31.0874 0.339999 31V8.1C0.338537 8.00186 0.358337 7.90457 0.398039 7.81481C0.437741 7.72505 0.496405 7.64495 0.569999 7.58L8.57 0.770004C8.67685 0.673286 8.81588 0.619814 8.96 0.620005C9.10739 0.618284 9.25008 0.671794 9.36 0.770004L14.45 5.1L19.54 0.770004C19.6499 0.671794 19.7926 0.618284 19.94 0.620005C20.0841 0.619814 20.2231 0.673286 20.33 0.770004L28.33 7.58C28.4016 7.64653 28.459 7.72694 28.4985 7.81634C28.538 7.90574 28.559 8.00225 28.56 8.1V31C28.5627 31.0849 28.5484 31.1694 28.5181 31.2488C28.4877 31.3281 28.4419 31.4006 28.3833 31.462C28.3246 31.5234 28.2544 31.5726 28.1765 31.6066C28.0987 31.6405 28.0149 31.6587 27.93 31.66L17 31.69ZM15.47 6L17.39 7.63C17.4649 7.69444 17.5251 7.77422 17.5665 7.86393C17.6079 7.95364 17.6296 8.0512 17.63 8.15001V30.37H27.34V8.37L20 2.13L15.47 6ZM1.6 8.41V30.41H11.31V8.1C11.3104 8.0012 11.3321 7.90364 11.3735 7.81393C11.4149 7.72421 11.4751 7.64444 11.55 7.58L13.47 6L9 2.13L1.6 8.41Z" fill="#EE414A"/>
</svg>
