<svg width="28" height="24" viewBox="0 0 28 24" fill="none" xmlns="http://www.w3.org/2000/svg">
<path d="M17.7859 20.3549L13.3327 21.8507V9.78973L18.826 7.93017V7.92993C18.8587 7.92923 18.8908 7.91983 18.9192 7.90291L23.999 6.19164V12.4447V12.4445C23.999 12.8167 24.2976 13.1185 24.6656 13.1185C25.0339 13.1185 25.3322 12.8167 25.3322 12.4445V5.26192C25.3299 5.20717 25.321 5.15288 25.3057 5.10024C25.3076 5.08121 25.3029 5.06217 25.2922 5.04619V5.0328C25.2711 4.9764 25.2443 4.92211 25.2122 4.87111C25.2122 4.86359 25.2064 4.85772 25.199 4.85772C25.1732 4.80508 25.1311 4.76255 25.079 4.73646C25.079 4.72306 25.079 4.72306 25.0657 4.72306V4.72283C25.0276 4.6864 24.982 4.65867 24.9323 4.64199L24.8123 4.60157H24.7991L12.9595 0.612621L12.8796 0.585596V0.585831C12.8161 0.559275 12.7482 0.545645 12.6796 0.54541H12.6529C12.5843 0.545645 12.5164 0.559275 12.4529 0.585831L12.3729 0.612856L6.5065 2.5937L6.41326 2.62073L0.533383 4.60157L0.453398 4.6286H0.453165C0.387364 4.65186 0.324586 4.68359 0.266695 4.72283C0.229261 4.74727 0.197405 4.77947 0.173227 4.8173C0.159974 4.8173 0.146489 4.8307 0.146489 4.85773H0.146721C0.117193 4.88311 0.0941746 4.91553 0.0799911 4.95196C0.0272118 5.04643 -0.000458524 5.15336 5.74768e-06 5.26193V18.7379C0.00209836 19.0251 0.184155 19.2793 0.453164 19.3712L12.4129 23.4006C12.4236 23.4109 12.4383 23.4158 12.4529 23.414C12.5901 23.468 12.7424 23.468 12.8796 23.414L12.9195 23.4006L18.2128 21.6219C18.3991 21.5817 18.5597 21.463 18.6537 21.2954C18.7478 21.1281 18.7667 20.9279 18.7053 20.7455C18.6437 20.5632 18.5081 20.4163 18.3326 20.3416C18.1568 20.2668 17.958 20.2718 17.7862 20.355L17.7859 20.3549ZM12.6661 1.91995L22.5723 5.26193L18.6657 6.58263L8.75948 3.24041L12.6661 1.91995ZM11.9993 21.8505L1.33292 18.2526V6.19165L11.9993 9.78979V21.8505ZM12.6658 8.60378L2.7596 5.2618L6.66621 3.9411L16.5725 7.28332L12.6658 8.60378ZM27.7428 20.9006L25.4149 19.0652C25.6681 18.5731 25.802 18.0272 25.8055 17.4723C25.8181 16.3648 25.3252 15.3131 24.4693 14.6213C23.6135 13.9294 22.49 13.6747 21.4237 13.9304C20.3574 14.1863 19.4672 14.9242 19.0103 15.9312C18.5532 16.9379 18.5806 18.1014 19.0844 19.0852C19.588 20.0689 20.512 20.7634 21.5892 20.9676C22.6665 21.172 23.7764 20.8634 24.5988 20.1312L26.9215 21.9722C27.2124 22.2014 27.6321 22.149 27.8587 21.855C28.0857 21.561 28.0336 21.1368 27.7427 20.9074L27.7428 20.9006ZM22.2855 19.6811C21.7057 19.6811 21.1493 19.4483 20.7393 19.0337C20.3292 18.6192 20.0988 18.0568 20.099 17.4707C20.099 16.8844 20.3297 16.3223 20.7398 15.9079C21.1502 15.4934 21.7066 15.2607 22.2864 15.261C22.8665 15.2612 23.4227 15.4943 23.8326 15.9091C24.2426 16.3238 24.4725 16.8862 24.4723 17.4723C24.4716 18.0582 24.2409 18.6198 23.831 19.0339C23.4209 19.4479 22.8652 19.6808 22.2855 19.6811V19.6811Z" fill="#EF3340"/>
</svg>
