<svg width="52" height="52" viewBox="0 0 52 52" fill="none" xmlns="http://www.w3.org/2000/svg">
<path d="M50 26C50 21.2533 48.5924 16.6131 45.9553 12.6663C43.3181 8.71955 39.5698 5.6434 35.1844 3.8269C30.799 2.0104 25.9734 1.53512 21.3178 2.46116C16.6623 3.38721 12.3859 5.67299 9.02945 9.02945C5.67299 12.3859 3.38721 16.6623 2.46116 21.3178C1.53512 25.9734 2.0104 30.799 3.8269 35.1844C5.6434 39.5698 8.71954 43.3181 12.6663 45.9553C16.6131 48.5924 21.2533 50 26 50C32.3645 49.9977 38.4676 47.4683 42.968 42.968C47.4683 38.4676 49.9977 32.3645 50 26Z" fill="#191919" stroke="#191919" stroke-width="2.25" stroke-miterlimit="10"/>
<path d="M21.1172 34.0678L34.9658 26.9561C35.1594 26.8564 35.3194 26.7159 35.4305 26.5482C35.5416 26.3806 35.6 26.1914 35.6 25.9989C35.6 25.8065 35.5416 25.6173 35.4305 25.4496C35.3194 25.282 35.1594 25.1415 34.9658 25.0418L21.1172 17.929C20.9186 17.8279 20.692 17.7736 20.4606 17.7715C20.2292 17.7695 20.0014 17.8199 19.8004 17.9174C19.5995 18.015 19.4326 18.1563 19.3171 18.3267C19.2015 18.4972 19.1414 18.6908 19.1428 18.8875V33.1126C19.1414 33.3093 19.2015 33.5029 19.3171 33.6734C19.4326 33.8438 19.5995 33.9851 19.8004 34.0827C20.0014 34.1802 20.2292 34.2306 20.4606 34.2286C20.692 34.2265 20.9186 34.1722 21.1172 34.0711V34.0678Z" fill="white"/>
</svg>
