<svg width="36" height="37" viewBox="0 0 36 37" fill="none" xmlns="http://www.w3.org/2000/svg">
<circle cx="18" cy="18.8779" r="18" fill="white"/>
<path d="M26.2451 14.1079L21.6666 9.32793C21.5299 9.1856 21.3667 9.0725 21.1865 8.99523C21.0064 8.91797 20.813 8.87809 20.6176 8.87793H13.4314C13.0413 8.87793 12.6673 9.03596 12.3915 9.31727C12.1157 9.59857 11.9608 9.9801 11.9608 10.3779V10.8779H11.4706C11.0806 10.8779 10.7065 11.036 10.4307 11.3173C10.1549 11.5986 10 11.9801 10 12.3779V14.8779C10 15.0105 10.0516 15.1377 10.1436 15.2315C10.2355 15.3253 10.3602 15.3779 10.4902 15.3779C10.6202 15.3779 10.7449 15.3253 10.8368 15.2315C10.9287 15.1377 10.9804 15.0105 10.9804 14.8779V12.3779C10.9804 12.2453 11.032 12.1181 11.124 12.0244C11.2159 11.9306 11.3406 11.8779 11.4706 11.8779H11.9608V25.3779C11.9608 25.7758 12.1157 26.1573 12.3915 26.4386C12.6673 26.7199 13.0413 26.8779 13.4314 26.8779H23.7255V27.3779C23.7255 27.5105 23.6738 27.6377 23.5819 27.7315C23.49 27.8253 23.3653 27.8779 23.2353 27.8779H11.4706C11.3406 27.8779 11.2159 27.8253 11.124 27.7315C11.032 27.6377 10.9804 27.5105 10.9804 27.3779V16.8779C10.9804 16.7453 10.9287 16.6181 10.8368 16.5244C10.7449 16.4306 10.6202 16.3779 10.4902 16.3779C10.3602 16.3779 10.2355 16.4306 10.1436 16.5244C10.0516 16.6181 10 16.7453 10 16.8779V27.3779C10 27.7758 10.1549 28.1573 10.4307 28.4386C10.7065 28.7199 11.0806 28.8779 11.4706 28.8779H23.2353C23.6253 28.8779 23.9993 28.7199 24.2751 28.4386C24.5509 28.1573 24.7059 27.7758 24.7059 27.3779V26.8779H25.1961C25.5861 26.8779 25.9601 26.7199 26.2359 26.4386C26.5117 26.1573 26.6666 25.7758 26.6666 25.3779V15.1529C26.6677 14.959 26.631 14.7667 26.5586 14.5873C26.4862 14.4079 26.3797 14.245 26.2451 14.1079ZM21.7647 10.8779L25.1372 14.3779H22.2549C22.1249 14.3779 22.0002 14.3253 21.9083 14.2315C21.8163 14.1377 21.7647 14.0105 21.7647 13.8779V10.8779ZM25.6863 25.3779C25.6863 25.5105 25.6346 25.6377 25.5427 25.7315C25.4507 25.8253 25.3261 25.8779 25.1961 25.8779H13.4314C13.3014 25.8779 13.1767 25.8253 13.0847 25.7315C12.9928 25.6377 12.9412 25.5105 12.9412 25.3779V10.3779C12.9412 10.2453 12.9928 10.1181 13.0847 10.0244C13.1767 9.93061 13.3014 9.87793 13.4314 9.87793H20.6176C20.6748 9.8796 20.7312 9.89144 20.7843 9.91293V13.8779C20.7843 14.2758 20.9392 14.6573 21.215 14.9386C21.4908 15.2199 21.8649 15.3779 22.2549 15.3779H25.6863V25.3779ZM22.5637 16.9879C22.6141 17.0292 22.6559 17.0802 22.6869 17.138C22.7179 17.1958 22.7373 17.2593 22.7442 17.3248C22.751 17.3904 22.7451 17.4566 22.7267 17.5198C22.7084 17.5829 22.678 17.6418 22.6372 17.6929L18.7157 22.6929C18.6695 22.7509 18.6112 22.7977 18.5451 22.8297C18.4789 22.8617 18.4066 22.8782 18.3333 22.8779C18.2227 22.8773 18.1156 22.8385 18.0294 22.7679L15.5784 20.7679C15.4774 20.6854 15.4125 20.5655 15.3978 20.4344C15.3831 20.3033 15.4198 20.1715 15.5 20.0679C15.5401 20.0162 15.5898 19.9731 15.6463 19.941C15.7028 19.909 15.765 19.8886 15.8293 19.8812C15.8935 19.8738 15.9586 19.8794 16.0207 19.8977C16.0828 19.916 16.1407 19.9467 16.1912 19.9879L18.2549 21.6729L21.8725 17.0679C21.9126 17.0162 21.9624 16.9731 22.0189 16.941C22.0754 16.909 22.1376 16.8886 22.2018 16.8812C22.266 16.8738 22.3311 16.8794 22.3932 16.8977C22.4553 16.916 22.5133 16.9467 22.5637 16.9879Z" fill="#EF3340"/>
</svg>
