<svg width="36" height="36" viewBox="0 0 36 36" fill="none" xmlns="http://www.w3.org/2000/svg">
<circle cx="18" cy="18" r="18" fill="white"/>
<path fill-rule="evenodd" clip-rule="evenodd" d="M9.2516 8C8.56627 8 8.00175 8.56106 8.00175 9.24221L8.00008 20.0097C8.00008 20.5624 8.83415 20.5624 8.83415 20.0097L8.83499 9.24221C8.83499 9.00577 9.01372 8.82814 9.2516 8.82814H20.9169C21.1548 8.82814 21.3335 9.00577 21.3335 9.24221V16.6955C21.3252 17.2553 22.1751 17.2553 22.1668 16.6955V9.24221C22.1668 8.56106 21.6022 8 20.9169 8H9.2516ZM11.7513 11.3126C11.6408 11.3126 11.5348 11.3562 11.4567 11.4338C11.3786 11.5115 11.3347 11.6168 11.3347 11.7266C11.3347 11.8364 11.3786 11.9418 11.4567 12.0194C11.5348 12.0971 11.6408 12.1407 11.7513 12.1407C11.8618 12.1407 11.9678 12.0971 12.0459 12.0194C12.124 11.9418 12.1679 11.8364 12.1679 11.7266C12.1679 11.6168 12.124 11.5115 12.0459 11.4338C11.9678 11.3562 11.8618 11.3126 11.7513 11.3126ZM13.3761 11.3134C12.8333 11.3506 12.872 12.1556 13.4161 12.1415H18.4172C18.9609 12.1299 18.9609 11.325 18.4172 11.3134H13.4161C13.4028 11.3128 13.3894 11.3128 13.3761 11.3134ZM11.7513 13.797C11.6408 13.797 11.5348 13.8406 11.4567 13.9182C11.3786 13.9959 11.3347 14.1012 11.3347 14.211C11.3347 14.3209 11.3786 14.4262 11.4567 14.5038C11.5348 14.5815 11.6408 14.6251 11.7513 14.6251C11.8618 14.6251 11.9678 14.5815 12.0459 14.5038C12.124 14.4262 12.1679 14.3209 12.1679 14.211C12.1679 14.1012 12.124 13.9959 12.0459 13.9182C11.9678 13.8406 11.8618 13.797 11.7513 13.797ZM18.463 13.797C18.4476 13.797 18.4322 13.797 18.4172 13.7986H13.4161C13.4028 13.798 13.3894 13.798 13.3761 13.7986C12.8653 13.8616 12.9012 14.6094 13.4161 14.6234H18.4172C18.9892 14.6736 19.0371 13.809 18.463 13.797ZM13.4161 16.2806C12.8724 16.2921 12.8724 17.0971 13.4161 17.1087H18.4172C18.9846 17.1211 18.9846 16.2681 18.4172 16.2806H13.4161ZM11.7513 16.2814C11.6408 16.2814 11.5348 16.325 11.4567 16.4027C11.3786 16.4803 11.3347 16.5856 11.3347 16.6955C11.3347 16.8053 11.3786 16.9106 11.4567 16.9882C11.5348 17.0659 11.6408 17.1095 11.7513 17.1095C11.8618 17.1095 11.9678 17.0659 12.0459 16.9882C12.124 16.9106 12.1679 16.8053 12.1679 16.6955C12.1679 16.5856 12.124 16.4803 12.0459 16.4027C11.9678 16.325 11.8618 16.2814 11.7513 16.2814ZM11.7513 18.7658C11.6408 18.7658 11.5348 18.8094 11.4567 18.8871C11.3786 18.9647 11.3347 19.07 11.3347 19.1799C11.3347 19.2897 11.3786 19.395 11.4567 19.4727C11.5348 19.5503 11.6408 19.5939 11.7513 19.5939C11.8618 19.5939 11.9678 19.5503 12.0459 19.4727C12.124 19.395 12.1679 19.2897 12.1679 19.1799C12.1679 19.07 12.124 18.9647 12.0459 18.8871C11.9678 18.8094 11.8618 18.7658 11.7513 18.7658ZM13.4161 18.7658C12.8487 18.7534 12.8487 19.6064 13.4161 19.5939H17.5831C18.1506 19.6064 18.1506 18.7534 17.5831 18.7658H13.4161ZM11.7513 21.2502C11.6408 21.2502 11.5348 21.2938 11.4567 21.3715C11.3786 21.4491 11.3347 21.5545 11.3347 21.6643C11.3347 21.7741 11.3786 21.8794 11.4567 21.9571C11.5348 22.0347 11.6408 22.0784 11.7513 22.0784C11.8618 22.0784 11.9678 22.0347 12.0459 21.9571C12.124 21.8794 12.1679 21.7741 12.1679 21.6643C12.1679 21.5545 12.124 21.4491 12.0459 21.3715C11.9678 21.2938 11.8618 21.2502 11.7513 21.2502ZM13.3761 21.2502C12.8204 21.2767 12.8599 22.1057 13.4161 22.0792H16.7499C17.3061 22.0792 17.3061 21.2502 16.7499 21.2502H13.4161C13.4028 21.2496 13.3894 21.2496 13.3761 21.2502ZM8.41254 21.6568C8.35747 21.6574 8.30305 21.6687 8.25244 21.6903C8.20183 21.7119 8.15602 21.7432 8.11766 21.7825C8.07931 21.8218 8.04917 21.8682 8.02898 21.9191C8.0088 21.9701 7.99898 22.0245 8.00008 22.0792L8.00175 24.1487C8.00175 24.8298 8.56627 25.3909 9.2516 25.3909H17.584C18.1472 25.3992 18.1472 24.5545 17.584 24.5628H9.2516C9.01372 24.5628 8.83499 24.3851 8.83499 24.1487L8.83415 22.0792C8.83527 22.0237 8.82516 21.9685 8.80441 21.917C8.78366 21.8655 8.7527 21.8186 8.71337 21.7792C8.67404 21.7398 8.62714 21.7087 8.57546 21.6877C8.52378 21.6666 8.46837 21.6562 8.41254 21.6568ZM21.751 17.9368C19.685 17.9368 18.0022 19.6101 18.0022 21.6635C18.0022 23.7168 19.6854 25.3926 21.751 25.3926C23.817 25.3926 25.4997 23.7168 25.4997 21.6635C25.4997 19.6101 23.8166 17.9368 21.751 17.9368ZM21.751 18.7658C22.1341 18.7649 22.5136 18.8393 22.8677 18.9846C23.2218 19.1299 23.5436 19.3433 23.8145 19.6126C24.0854 19.8818 24.3001 20.2016 24.4463 20.5535C24.5925 20.9055 24.6673 21.2827 24.6665 21.6635C24.6674 22.0444 24.5926 22.4217 24.4465 22.7738C24.3003 23.1259 24.0857 23.4459 23.8148 23.7153C23.5439 23.9848 23.2221 24.1984 22.868 24.344C22.5138 24.4896 22.1342 24.5642 21.751 24.5636C21.3677 24.5642 20.9881 24.4896 20.634 24.344C20.2798 24.1984 19.9581 23.9848 19.6872 23.7153C19.4163 23.4459 19.2016 23.1259 19.0555 22.7738C18.9093 22.4217 18.8346 22.0444 18.8355 21.6635C18.8346 21.2827 18.9094 20.9055 19.0556 20.5535C19.2018 20.2016 19.4165 19.8818 19.6875 19.6126C19.9584 19.3433 20.2801 19.1299 20.6342 18.9846C20.9883 18.8393 21.3679 18.7649 21.751 18.7658Z" fill="#EF3340"/>
<path d="M27.626 28C27.5267 28 27.4299 27.961 27.3567 27.8856L23.7421 24.1373C23.5983 23.9891 23.6035 23.7525 23.7526 23.6096C23.9017 23.4666 24.1397 23.4718 24.2835 23.62L27.8954 27.3683C28.0393 27.5165 28.034 27.753 27.885 27.896C27.8117 27.9662 27.7176 28 27.626 28Z" fill="#EF3340"/>
</svg>
