<svg width="21" height="21" viewBox="0 0 21 21" fill="none" xmlns="http://www.w3.org/2000/svg">
<path d="M10.5 17.9375H6.125C3.5 17.9375 1.75 16.625 1.75 13.5625V7.4375C1.75 4.375 3.5 3.0625 6.125 3.0625H14.875C17.5 3.0625 19.25 4.375 19.25 7.4375V10.0625" stroke="#191919" stroke-width="1.5" stroke-miterlimit="10" stroke-linecap="round" stroke-linejoin="round"/>
<path d="M14.875 7.875L12.1362 10.0625C11.235 10.78 9.75625 10.78 8.855 10.0625L6.125 7.875" stroke="#191919" stroke-width="1.5" stroke-miterlimit="10" stroke-linecap="round" stroke-linejoin="round"/>
<path d="M16.8087 12.9242L13.7112 16.0217C13.5887 16.1442 13.4749 16.3717 13.4487 16.538L13.2824 17.7192C13.2212 18.148 13.5187 18.4455 13.9474 18.3843L15.1287 18.218C15.2949 18.1918 15.5312 18.078 15.6449 17.9555L18.7424 14.858C19.2762 14.3243 19.5299 13.703 18.7424 12.9155C17.9637 12.1368 17.3424 12.3905 16.8087 12.9242Z" stroke="#191919" stroke-width="1.5" stroke-miterlimit="10" stroke-linecap="round" stroke-linejoin="round"/>
<path d="M16.3623 13.3701C16.6248 14.3151 17.3598 15.0501 18.3048 15.3126" stroke="#191919" stroke-width="1.5" stroke-miterlimit="10" stroke-linecap="round" stroke-linejoin="round"/>
</svg>
