<svg width="36" height="36" viewBox="0 0 36 36" fill="none" xmlns="http://www.w3.org/2000/svg">
<rect width="36" height="36" rx="8" fill="#00B833"/>
<path d="M17.9998 9.00098C13.0363 9.00098 8.99976 13.0375 8.99976 18.001C8.99976 19.4365 9.34626 20.854 10.0033 22.1275L9.04026 25.5745C8.93226 25.966 9.04476 26.3845 9.32826 26.6725C9.54426 26.884 9.83226 27.001 10.1248 27.001C10.2283 27.001 10.3273 26.9875 10.4263 26.9605L13.8733 25.9975C15.1468 26.6545 16.5688 27.001 17.9998 27.001C22.9633 27.001 26.9998 22.9645 26.9998 18.001C26.9998 13.0375 22.9633 9.00098 17.9998 9.00098ZM22.6618 21.3175C22.4638 21.871 21.4918 22.4065 21.0553 22.447C20.6188 22.4875 20.2093 22.645 18.2023 21.853C15.7813 20.899 14.2513 18.4195 14.1343 18.2575C14.0128 18.1 13.1623 16.9705 13.1623 15.796C13.1623 14.626 13.7788 14.05 13.9948 13.8115C14.2153 13.573 14.4718 13.5145 14.6293 13.5145C14.7913 13.5145 14.9488 13.5145 15.0883 13.519C15.2548 13.528 15.4438 13.537 15.6238 13.933C15.8353 14.401 16.2988 15.58 16.3573 15.7015C16.4158 15.8185 16.4563 15.958 16.3753 16.1155C16.2988 16.273 16.2583 16.372 16.1368 16.5115C16.0198 16.651 15.8893 16.822 15.7813 16.93C15.6643 17.047 15.5383 17.1775 15.6778 17.416C15.8173 17.6545 16.2943 18.433 17.0008 19.063C17.9098 19.873 18.6748 20.125 18.9133 20.2465C19.1518 20.3635 19.2913 20.3455 19.4308 20.1835C19.5703 20.026 20.0248 19.4905 20.1868 19.252C20.3443 19.0135 20.5018 19.054 20.7223 19.135C20.9383 19.2115 22.1083 19.7875 22.3468 19.909C22.5853 20.026 22.7428 20.0845 22.8013 20.1835C22.8598 20.2825 22.8598 20.7595 22.6618 21.3175Z" fill="white"/>
</svg>
