<svg width="36" height="36" viewBox="0 0 36 36" fill="none" xmlns="http://www.w3.org/2000/svg">
<rect width="36" height="36" rx="8" fill="#EF3340"/>
<path d="M28 15.3889C28 12.9652 26.0351 11 23.6117 11H12.3883C9.96489 11 8 12.9652 8 15.3889V20.6111C8 23.0348 9.96489 25 12.3883 25H23.6117C26.0351 25 28 23.0348 28 20.6111V15.3889ZM21.4005 18.3917L16.3678 20.881C16.1713 20.9884 15.5007 20.8443 15.5007 20.6216V15.5094C15.5007 15.2815 16.1766 15.14 16.373 15.2527L21.191 17.8729C21.3927 17.9882 21.6049 18.2791 21.4005 18.3917Z" fill="white"/>
</svg>
