<svg width="57" height="57" viewBox="0 0 57 57" fill="none" xmlns="http://www.w3.org/2000/svg">
<rect x="0.109375" y="0.414062" width="56" height="56" rx="8" fill="#F5AEAF" fill-opacity="0.4"/>
<path fill-rule="evenodd" clip-rule="evenodd" d="M30.2495 18.884C29.9255 18.4885 29.4332 18.2361 28.882 18.2361H27.1285C26.5928 18.2361 26.1127 18.4745 25.7887 18.851C25.7544 18.8796 25.7212 18.9099 25.6893 18.9418C25.6696 18.9615 25.6505 18.9817 25.632 19.0024H25.6719C25.476 19.287 25.3613 19.6317 25.3613 20.0033C25.3613 20.3741 25.4755 20.7182 25.6707 21.0024H25.632C25.6505 21.0231 25.6696 21.0434 25.6893 21.0631C25.7196 21.0933 25.751 21.1221 25.7834 21.1495C26.1075 21.5295 26.5899 21.7705 27.1285 21.7705H28.882C29.4362 21.7705 29.9308 21.5154 30.2548 21.1162C30.2738 21.099 30.2924 21.0813 30.3107 21.0631C30.3304 21.0434 30.3495 21.0231 30.368 21.0024H30.3398C30.5349 20.7182 30.6492 20.3741 30.6492 20.0033C30.6492 19.6317 30.5345 19.287 30.3386 19.0024H30.368C30.3495 18.9817 30.3304 18.9615 30.3107 18.9418C30.2908 18.9219 30.2704 18.9026 30.2495 18.884ZM31.7249 17.5276C32.1396 17.9423 32.4395 18.4504 32.6041 19.0024H34.25C35.1783 19.0024 36.0685 19.3712 36.7249 20.0276C37.3813 20.6839 37.75 21.5742 37.75 22.5024V37.5024C37.75 38.4307 37.3813 39.3209 36.7249 39.9773C36.0685 40.6337 35.1783 41.0024 34.25 41.0024H21.75C20.8217 41.0024 19.9315 40.6337 19.2751 39.9773C18.6187 39.3209 18.25 38.4307 18.25 37.5024V22.5024C18.25 21.5742 18.6187 20.6839 19.2751 20.0276C19.9315 19.3712 20.8217 19.0024 21.75 19.0024H23.3959C23.5605 18.4504 23.8604 17.9423 24.2751 17.5276C24.9315 16.8712 25.8217 16.5024 26.75 16.5024H29.25C30.1783 16.5024 31.0685 16.8712 31.7249 17.5276ZM24.2751 22.4773C23.8604 22.0626 23.5605 21.5545 23.3959 21.0024H21.75C21.3522 21.0024 20.9706 21.1605 20.6893 21.4418C20.408 21.7231 20.25 22.1046 20.25 22.5024V37.5024C20.25 37.9003 20.408 38.2818 20.6893 38.5631C20.9706 38.8444 21.3522 39.0024 21.75 39.0024H34.25C34.6478 39.0024 35.0294 38.8444 35.3107 38.5631C35.592 38.2818 35.75 37.9003 35.75 37.5024V22.5024C35.75 22.1046 35.592 21.7231 35.3107 21.4418C35.0294 21.1605 34.6478 21.0024 34.25 21.0024H32.6041C32.4395 21.5545 32.1396 22.0626 31.7249 22.4773C31.0685 23.1337 30.1783 23.5024 29.25 23.5024H26.75C25.8217 23.5024 24.9315 23.1337 24.2751 22.4773ZM24.25 27.7524C23.6977 27.7524 23.25 28.2002 23.25 28.7524C23.25 29.3047 23.6977 29.7524 24.25 29.7524H24.2625C24.8148 29.7524 25.2625 29.3047 25.2625 28.7524C25.2625 28.2002 24.8148 27.7524 24.2625 27.7524H24.25ZM28 27.7524C27.4477 27.7524 27 28.2002 27 28.7524C27 29.3047 27.4477 29.7524 28 29.7524H31.75C32.3023 29.7524 32.75 29.3047 32.75 28.7524C32.75 28.2002 32.3023 27.7524 31.75 27.7524H28ZM24.25 32.7524C23.6977 32.7524 23.25 33.2002 23.25 33.7524C23.25 34.3047 23.6977 34.7524 24.25 34.7524H24.2625C24.8148 34.7524 25.2625 34.3047 25.2625 33.7524C25.2625 33.2002 24.8148 32.7524 24.2625 32.7524H24.25ZM28 32.7524C27.4477 32.7524 27 33.2002 27 33.7524C27 34.3047 27.4477 34.7524 28 34.7524H31.75C32.3023 34.7524 32.75 34.3047 32.75 33.7524C32.75 33.2002 32.3023 32.7524 31.75 32.7524H28Z" fill="#EC6B6C"/>
</svg>
