<svg width="57" height="57" viewBox="0 0 57 57" fill="none" xmlns="http://www.w3.org/2000/svg">
<rect x="0.109375" y="0.414062" width="56" height="56" rx="8" fill="#F5AEAF" fill-opacity="0.4"/>
<g clip-path="url(#clip0_702_8)">
<path d="M34.7148 36.6758H37.2148V30.4258H25.9648V19.1758H19.7148V21.6758H22.2148V24.1758H19.7148V26.6758H23.4648V29.1758H19.7148V31.6758H22.2148V34.1758H19.7148V36.6758H22.2148V34.1758H24.7148V36.6758H27.2148V32.9258H29.7148V36.6758H32.2148V34.1758H34.7148V36.6758ZM28.4648 27.9258H38.4648C38.7964 27.9258 39.1143 28.0575 39.3487 28.2919C39.5831 28.5263 39.7148 28.8443 39.7148 29.1758V37.9258C39.7148 38.2573 39.5831 38.5752 39.3487 38.8097C39.1143 39.0441 38.7964 39.1758 38.4648 39.1758H18.4648C18.1333 39.1758 17.8154 39.0441 17.581 38.8097C17.3465 38.5752 17.2148 38.2573 17.2148 37.9258V17.9258C17.2148 17.5943 17.3465 17.2763 17.581 17.0419C17.8154 16.8075 18.1333 16.6758 18.4648 16.6758H27.2148C27.5464 16.6758 27.8643 16.8075 28.0987 17.0419C28.3331 17.2763 28.4648 17.5943 28.4648 17.9258V27.9258Z" fill="#EC6B6C"/>
</g>
<defs>
<clipPath id="clip0_702_8">
<rect width="30" height="30" fill="white" transform="translate(13.4648 12.9258)"/>
</clipPath>
</defs>
</svg>
