<svg width="57" height="57" viewBox="0 0 57 57" fill="none" xmlns="http://www.w3.org/2000/svg">
<rect x="0.109375" y="0.414062" width="56" height="56" rx="8" fill="#F5AEAF" fill-opacity="0.4"/>
<path d="M41.0357 39V17.5714H15.9643V39H41.0357Z" stroke="#EC6B6C" stroke-width="1.5" stroke-linecap="round" stroke-linejoin="round"/>
<path d="M19.5378 24.7095L19.5322 24.7143L19.5264 24.7095H19.0263C18.953 24.7095 18.8827 24.6846 18.8309 24.6403C18.7791 24.596 18.75 24.536 18.75 24.4734V20.6647C18.7505 20.6023 18.7798 20.5425 18.8315 20.4983C18.8832 20.4541 18.9532 20.4291 19.0263 20.4286H24.0451C24.1977 20.4286 24.3214 20.5344 24.3214 20.6647V24.4734C24.3209 24.5358 24.2916 24.5956 24.2399 24.6398C24.1882 24.684 24.1182 24.709 24.0451 24.7095H19.5378V24.7095ZM23.7643 23.2825V20.9042H19.3071V24.2339L22.0929 21.8556L23.7643 23.2825ZM23.7643 23.9551L22.0929 22.5281L20.0949 24.2339H23.7643V23.9551ZM20.4214 22.3312C20.2737 22.3312 20.132 22.2811 20.0275 22.1919C19.923 22.1027 19.8643 21.9817 19.8643 21.8556C19.8643 21.7294 19.923 21.6084 20.0275 21.5192C20.132 21.43 20.2737 21.3799 20.4214 21.3799C20.5692 21.3799 20.7109 21.43 20.8154 21.5192C20.9199 21.6084 20.9786 21.7294 20.9786 21.8556C20.9786 21.9817 20.9199 22.1027 20.8154 22.1919C20.7109 22.2811 20.5692 22.3312 20.4214 22.3312Z" fill="#EC6B6C"/>
<path d="M26.5021 24.7095L26.4965 24.7143L26.4907 24.7095H25.9906C25.9173 24.7095 25.847 24.6846 25.7952 24.6403C25.7434 24.596 25.7143 24.536 25.7143 24.4734V20.6647C25.7148 20.6023 25.7441 20.5425 25.7958 20.4983C25.8475 20.4541 25.9175 20.4291 25.9906 20.4286H31.0094C31.162 20.4286 31.2857 20.5344 31.2857 20.6647V24.4734C31.2852 24.5358 31.2559 24.5956 31.2042 24.6398C31.1525 24.684 31.0825 24.709 31.0094 24.7095H26.5021V24.7095ZM30.7286 23.2825V20.9042H26.2714V24.2339L29.0572 21.8556L30.7286 23.2825ZM30.7286 23.9551L29.0572 22.5281L27.0592 24.2339H30.7286V23.9551ZM27.3857 22.3312C27.238 22.3312 27.0962 22.2811 26.9918 22.1919C26.8873 22.1027 26.8286 21.9817 26.8286 21.8556C26.8286 21.7294 26.8873 21.6084 26.9918 21.5192C27.0962 21.43 27.238 21.3799 27.3857 21.3799C27.5335 21.3799 27.6752 21.43 27.7797 21.5192C27.8842 21.6084 27.9429 21.7294 27.9429 21.8556C27.9429 21.9817 27.8842 22.1027 27.7797 22.1919C27.6752 22.2811 27.5335 22.3312 27.3857 22.3312Z" fill="#EC6B6C"/>
<path d="M19.5378 30.4238L19.5322 30.4286L19.5264 30.4238H19.0263C18.953 30.4238 18.8827 30.3988 18.8309 30.3546C18.7791 30.3103 18.75 30.2502 18.75 30.1876V26.379C18.7505 26.3166 18.7798 26.2568 18.8315 26.2126C18.8832 26.1684 18.9532 26.1434 19.0263 26.1429H24.0451C24.1977 26.1429 24.3214 26.2487 24.3214 26.379V30.1876C24.3209 30.2501 24.2916 30.3099 24.2399 30.3541C24.1882 30.3983 24.1182 30.4233 24.0451 30.4238H19.5378ZM23.7643 28.9968V26.6185H19.3071V29.9482L22.0929 27.5698L23.7643 28.9968ZM23.7643 29.6694L22.0929 28.2424L20.0949 29.9482H23.7643V29.6694ZM20.4214 28.0455C20.2737 28.0455 20.132 27.9954 20.0275 27.9062C19.923 27.817 19.8643 27.696 19.8643 27.5698C19.8643 27.4437 19.923 27.3227 20.0275 27.2335C20.132 27.1443 20.2737 27.0942 20.4214 27.0942C20.5692 27.0942 20.7109 27.1443 20.8154 27.2335C20.9199 27.3227 20.9786 27.4437 20.9786 27.5698C20.9786 27.696 20.9199 27.817 20.8154 27.9062C20.7109 27.9954 20.5692 28.0455 20.4214 28.0455Z" fill="#EC6B6C"/>
<path d="M26.5021 30.4238L26.4965 30.4286L26.4907 30.4238H25.9906C25.9173 30.4238 25.847 30.3988 25.7952 30.3546C25.7434 30.3103 25.7143 30.2502 25.7143 30.1876V26.379C25.7148 26.3166 25.7441 26.2568 25.7958 26.2126C25.8475 26.1684 25.9175 26.1434 25.9906 26.1429H31.0094C31.162 26.1429 31.2857 26.2487 31.2857 26.379V30.1876C31.2852 30.2501 31.2559 30.3099 31.2042 30.3541C31.1525 30.3983 31.0825 30.4233 31.0094 30.4238H26.5021ZM30.7286 28.9968V26.6185H26.2714V29.9482L29.0572 27.5698L30.7286 28.9968ZM30.7286 29.6694L29.0572 28.2424L27.0592 29.9482H30.7286V29.6694ZM27.3857 28.0455C27.238 28.0455 27.0962 27.9954 26.9918 27.9062C26.8873 27.817 26.8286 27.696 26.8286 27.5698C26.8286 27.4437 26.8873 27.3227 26.9918 27.2335C27.0962 27.1443 27.238 27.0942 27.3857 27.0942C27.5335 27.0942 27.6752 27.1443 27.7797 27.2335C27.8842 27.3227 27.9429 27.4437 27.9429 27.5698C27.9429 27.696 27.8842 27.817 27.7797 27.9062C27.6752 27.9954 27.5335 28.0455 27.3857 28.0455Z" fill="#EC6B6C"/>
<path d="M33.4664 24.7095L33.4608 24.7143L33.455 24.7095H32.9549C32.8816 24.7095 32.8113 24.6846 32.7595 24.6403C32.7077 24.596 32.6786 24.536 32.6786 24.4734V20.6647C32.6791 20.6023 32.7084 20.5425 32.7601 20.4983C32.8118 20.4541 32.8818 20.4291 32.9549 20.4286H37.9737C38.1263 20.4286 38.25 20.5344 38.25 20.6647V24.4734C38.2495 24.5358 38.2202 24.5956 38.1685 24.6398C38.1168 24.684 38.0468 24.709 37.9737 24.7095H33.4664ZM37.6929 23.2825V20.9042H33.2357V24.2339L36.0214 21.8556L37.6929 23.2825ZM37.6929 23.9551L36.0214 22.5281L34.0235 24.2339H37.6929V23.9551ZM34.35 22.3312C34.2022 22.3312 34.0605 22.2811 33.956 22.1919C33.8516 22.1027 33.7929 21.9817 33.7929 21.8556C33.7929 21.7294 33.8516 21.6084 33.956 21.5192C34.0605 21.43 34.2022 21.3799 34.35 21.3799C34.4978 21.3799 34.6395 21.43 34.744 21.5192C34.8484 21.6084 34.9071 21.7294 34.9071 21.8556C34.9071 21.9817 34.8484 22.1027 34.744 22.1919C34.6395 22.2811 34.4978 22.3312 34.35 22.3312Z" fill="#EC6B6C"/>
<path d="M33.4664 30.4238L33.4608 30.4286L33.455 30.4238H32.9549C32.8816 30.4238 32.8113 30.3988 32.7595 30.3546C32.7077 30.3103 32.6786 30.2502 32.6786 30.1876V26.379C32.6791 26.3166 32.7084 26.2568 32.7601 26.2126C32.8118 26.1684 32.8818 26.1434 32.9549 26.1429H37.9737C38.1263 26.1429 38.25 26.2487 38.25 26.379V30.1876C38.2495 30.2501 38.2202 30.3099 38.1685 30.3541C38.1168 30.3983 38.0468 30.4233 37.9737 30.4238H33.4664ZM37.6929 28.9968V26.6185H33.2357V29.9482L36.0214 27.5698L37.6929 28.9968ZM37.6929 29.6694L36.0214 28.2424L34.0235 29.9482H37.6929V29.6694ZM34.35 28.0455C34.2022 28.0455 34.0605 27.9954 33.956 27.9062C33.8516 27.817 33.7929 27.696 33.7929 27.5698C33.7929 27.4437 33.8516 27.3227 33.956 27.2335C34.0605 27.1443 34.2022 27.0942 34.35 27.0942C34.4978 27.0942 34.6395 27.1443 34.744 27.2335C34.8484 27.3227 34.9071 27.4437 34.9071 27.5698C34.9071 27.696 34.8484 27.817 34.744 27.9062C34.6395 27.9954 34.4978 28.0455 34.35 28.0455Z" fill="#EC6B6C"/>
<path d="M19.5378 36.1381L19.5322 36.1429L19.5264 36.1381H19.0263C18.953 36.138 18.8827 36.1131 18.8309 36.0688C18.7791 36.0246 18.75 35.9645 18.75 35.9019V32.0933C18.7505 32.0308 18.7798 31.9711 18.8315 31.9269C18.8832 31.8827 18.9532 31.8576 19.0263 31.8571H24.0451C24.1977 31.8571 24.3214 31.963 24.3214 32.0933V35.9019C24.3209 35.9644 24.2916 36.0242 24.2399 36.0684C24.1882 36.1125 24.1182 36.1376 24.0451 36.1381H19.5378ZM23.7643 34.7111V32.3328H19.3071V35.6624L22.0929 33.2841L23.7643 34.7111ZM23.7643 35.3837L22.0929 33.9567L20.0949 35.6624H23.7643V35.3837ZM20.4214 33.7598C20.2737 33.7598 20.132 33.7097 20.0275 33.6205C19.923 33.5313 19.8643 33.4103 19.8643 33.2841C19.8643 33.158 19.923 33.037 20.0275 32.9478C20.132 32.8586 20.2737 32.8085 20.4214 32.8085C20.5692 32.8085 20.7109 32.8586 20.8154 32.9478C20.9199 33.037 20.9786 33.158 20.9786 33.2841C20.9786 33.4103 20.9199 33.5313 20.8154 33.6205C20.7109 33.7097 20.5692 33.7598 20.4214 33.7598Z" fill="#EC6B6C"/>
<path d="M26.5021 36.1381L26.4965 36.1429L26.4907 36.1381H25.9906C25.9173 36.138 25.847 36.1131 25.7952 36.0688C25.7434 36.0246 25.7143 35.9645 25.7143 35.9019V32.0933C25.7148 32.0308 25.7441 31.9711 25.7958 31.9269C25.8475 31.8827 25.9175 31.8576 25.9906 31.8571H31.0094C31.162 31.8571 31.2857 31.963 31.2857 32.0933V35.9019C31.2852 35.9644 31.2559 36.0242 31.2042 36.0684C31.1525 36.1125 31.0825 36.1376 31.0094 36.1381H26.5021ZM30.7286 34.7111V32.3328H26.2714V35.6624L29.0572 33.2841L30.7286 34.7111ZM30.7286 35.3837L29.0572 33.9567L27.0592 35.6624H30.7286V35.3837ZM27.3857 33.7598C27.238 33.7598 27.0962 33.7097 26.9918 33.6205C26.8873 33.5313 26.8286 33.4103 26.8286 33.2841C26.8286 33.158 26.8873 33.037 26.9918 32.9478C27.0962 32.8586 27.238 32.8085 27.3857 32.8085C27.5335 32.8085 27.6752 32.8586 27.7797 32.9478C27.8842 33.037 27.9429 33.158 27.9429 33.2841C27.9429 33.4103 27.8842 33.5313 27.7797 33.6205C27.6752 33.7097 27.5335 33.7598 27.3857 33.7598Z" fill="#EC6B6C"/>
<path d="M33.4664 36.1381L33.4608 36.1429L33.455 36.1381H32.9549C32.8816 36.138 32.8113 36.1131 32.7595 36.0688C32.7077 36.0246 32.6786 35.9645 32.6786 35.9019V32.0933C32.6791 32.0308 32.7084 31.9711 32.7601 31.9269C32.8118 31.8827 32.8818 31.8576 32.9549 31.8571H37.9737C38.1263 31.8571 38.25 31.963 38.25 32.0933V35.9019C38.2495 35.9644 38.2202 36.0242 38.1685 36.0684C38.1168 36.1125 38.0468 36.1376 37.9737 36.1381H33.4664ZM37.6929 34.7111V32.3328H33.2357V35.6624L36.0214 33.2841L37.6929 34.7111ZM37.6929 35.3837L36.0214 33.9567L34.0235 35.6624H37.6929V35.3837ZM34.35 33.7598C34.2022 33.7598 34.0605 33.7097 33.956 33.6205C33.8516 33.5313 33.7929 33.4103 33.7929 33.2841C33.7929 33.158 33.8516 33.037 33.956 32.9478C34.0605 32.8586 34.2022 32.8085 34.35 32.8085C34.4978 32.8085 34.6395 32.8586 34.744 32.9478C34.8484 33.037 34.9071 33.158 34.9071 33.2841C34.9071 33.4103 34.8484 33.5313 34.744 33.6205C34.6395 33.7097 34.4978 33.7598 34.35 33.7598Z" fill="#EC6B6C"/>
</svg>
