<svg width="57" height="57" viewBox="0 0 57 57" fill="none" xmlns="http://www.w3.org/2000/svg">
<rect x="0.109375" y="0.414062" width="56" height="56" rx="8" fill="#F5AEAF" fill-opacity="0.4"/>
<g clip-path="url(#clip0_704_36)">
<path d="M38.9172 17.3438H35.5312V15.7812C35.5312 15.574 35.4489 15.3753 35.3024 15.2288C35.1559 15.0823 34.9572 15 34.75 15C34.5428 15 34.3441 15.0823 34.1976 15.2288C34.0511 15.3753 33.9688 15.574 33.9688 15.7812V17.3438H29.2812V15.7812C29.2812 15.574 29.1989 15.3753 29.0524 15.2288C28.9059 15.0823 28.7072 15 28.5 15C28.2928 15 28.0941 15.0823 27.9476 15.2288C27.8011 15.3753 27.7188 15.574 27.7188 15.7812V17.3438H23.0312V15.7812C23.0312 15.574 22.9489 15.3753 22.8024 15.2288C22.6559 15.0823 22.4572 15 22.25 15C22.0428 15 21.8441 15.0823 21.6976 15.2288C21.5511 15.3753 21.4688 15.574 21.4688 15.7812V17.3438H18.0836C17.81 17.3436 17.5391 17.3974 17.2863 17.5021C17.0335 17.6067 16.8038 17.7601 16.6103 17.9535C16.4168 18.1469 16.2633 18.3766 16.1586 18.6293C16.0539 18.8821 16 19.153 16 19.4266V37.9164C16 38.469 16.2195 38.999 16.6103 39.3897C17.001 39.7805 17.531 40 18.0836 40H38.9172C39.1908 40 39.4617 39.9461 39.7144 39.8414C39.9672 39.7367 40.1968 39.5832 40.3902 39.3897C40.5837 39.1962 40.7371 38.9665 40.8417 38.7137C40.9463 38.4609 41.0001 38.19 41 37.9164V19.4266C41.0001 19.153 40.9463 18.8821 40.8417 18.6294C40.737 18.3766 40.5836 18.147 40.3902 17.9536C40.1968 17.7601 39.9671 17.6067 39.7144 17.5021C39.4616 17.3975 39.1907 17.3436 38.9172 17.3438V17.3438ZM39.4375 37.9164C39.4375 38.0545 39.3827 38.1869 39.2852 38.2846C39.1876 38.3823 39.0553 38.4373 38.9172 38.4375H18.0836C17.9454 38.4375 17.8128 38.3826 17.7151 38.2849C17.6174 38.1872 17.5625 38.0546 17.5625 37.9164V19.4266C17.5625 19.1398 17.7961 18.9062 18.0836 18.9062H21.4688V20.4688C21.4688 20.676 21.5511 20.8747 21.6976 21.0212C21.8441 21.1677 22.0428 21.25 22.25 21.25C22.4572 21.25 22.6559 21.1677 22.8024 21.0212C22.9489 20.8747 23.0312 20.676 23.0312 20.4688V18.9062H27.7188V20.4688C27.7188 20.676 27.8011 20.8747 27.9476 21.0212C28.0941 21.1677 28.2928 21.25 28.5 21.25C28.7072 21.25 28.9059 21.1677 29.0524 21.0212C29.1989 20.8747 29.2812 20.676 29.2812 20.4688V18.9062H33.9688V20.4688C33.9688 20.676 34.0511 20.8747 34.1976 21.0212C34.3441 21.1677 34.5428 21.25 34.75 21.25C34.9572 21.25 35.1559 21.1677 35.3024 21.0212C35.4489 20.8747 35.5312 20.676 35.5312 20.4688V18.9062H38.9172C39.2039 18.9062 39.4375 19.1398 39.4375 19.4266V37.9164V37.9164Z" fill="#EC6B6C"/>
<path d="M21.4688 24.375H24.5938V26.7188H21.4688V24.375ZM21.4688 28.2812H24.5938V30.625H21.4688V28.2812ZM21.4688 32.1875H24.5938V34.5312H21.4688V32.1875ZM26.9375 32.1875H30.0625V34.5312H26.9375V32.1875ZM26.9375 28.2812H30.0625V30.625H26.9375V28.2812ZM26.9375 24.375H30.0625V26.7188H26.9375V24.375ZM32.4062 32.1875H35.5312V34.5312H32.4062V32.1875ZM32.4062 28.2812H35.5312V30.625H32.4062V28.2812ZM32.4062 24.375H35.5312V26.7188H32.4062V24.375Z" fill="#EC6B6C"/>
</g>
<defs>
<clipPath id="clip0_704_36">
<rect width="25" height="25" fill="white" transform="translate(16 15)"/>
</clipPath>
</defs>
</svg>
