<svg width="176" height="188" viewBox="0 0 176 188" fill="none" xmlns="http://www.w3.org/2000/svg">
<g opacity="0.5">
<circle cx="3.5323" cy="2.86824" r="2.79207" fill="#EC6B6C"/>
<circle cx="3.5323" cy="23.0821" r="2.79207" fill="#EC6B6C"/>
<circle cx="3.5323" cy="43.295" r="2.79207" fill="#EC6B6C"/>
<circle cx="3.5323" cy="63.5089" r="2.79207" fill="#EC6B6C"/>
<circle cx="3.5323" cy="83.7227" r="2.79207" fill="#EC6B6C"/>
<circle cx="3.5323" cy="103.937" r="2.79207" fill="#EC6B6C"/>
<circle cx="3.5323" cy="124.15" r="2.79207" fill="#EC6B6C"/>
<circle cx="3.5323" cy="144.364" r="2.79207" fill="#EC6B6C"/>
<circle cx="3.5323" cy="164.578" r="2.79207" fill="#EC6B6C"/>
<circle cx="3.5323" cy="184.792" r="2.79207" fill="#EC6B6C"/>
<circle cx="24.0069" cy="2.86824" r="2.79207" fill="#EC6B6C"/>
<circle cx="24.0069" cy="23.0811" r="2.79207" fill="#EC6B6C"/>
<circle cx="24.0069" cy="43.296" r="2.79207" fill="#EC6B6C"/>
<circle cx="24.0069" cy="63.5089" r="2.79207" fill="#EC6B6C"/>
<circle cx="24.0069" cy="83.7237" r="2.79207" fill="#EC6B6C"/>
<circle cx="24.0069" cy="103.937" r="2.79207" fill="#EC6B6C"/>
<circle cx="24.0069" cy="124.15" r="2.79207" fill="#EC6B6C"/>
<circle cx="24.0069" cy="144.364" r="2.79207" fill="#EC6B6C"/>
<circle cx="24.0069" cy="164.578" r="2.79207" fill="#EC6B6C"/>
<circle cx="24.0069" cy="184.792" r="2.79207" fill="#EC6B6C"/>
<circle cx="44.4835" cy="2.86824" r="2.79207" fill="#EC6B6C"/>
<circle cx="44.4835" cy="23.0811" r="2.79207" fill="#EC6B6C"/>
<circle cx="44.4835" cy="43.296" r="2.79207" fill="#EC6B6C"/>
<circle cx="44.4835" cy="63.5089" r="2.79207" fill="#EC6B6C"/>
<circle cx="44.4835" cy="83.7237" r="2.79207" fill="#EC6B6C"/>
<circle cx="44.4835" cy="103.937" r="2.79207" fill="#EC6B6C"/>
<circle cx="44.4835" cy="124.15" r="2.79207" fill="#EC6B6C"/>
<circle cx="44.4835" cy="144.364" r="2.79207" fill="#EC6B6C"/>
<circle cx="44.4835" cy="164.578" r="2.79207" fill="#EC6B6C"/>
<circle cx="44.4835" cy="184.792" r="2.79207" fill="#EC6B6C"/>
<circle cx="64.9581" cy="2.86824" r="2.79207" fill="#EC6B6C"/>
<circle cx="64.9581" cy="23.0811" r="2.79207" fill="#EC6B6C"/>
<circle cx="64.9581" cy="43.296" r="2.79207" fill="#EC6B6C"/>
<circle cx="64.9581" cy="63.5089" r="2.79207" fill="#EC6B6C"/>
<circle cx="64.9581" cy="83.7237" r="2.79207" fill="#EC6B6C"/>
<circle cx="64.9581" cy="103.937" r="2.79207" fill="#EC6B6C"/>
<circle cx="64.9581" cy="124.15" r="2.79207" fill="#EC6B6C"/>
<circle cx="64.9581" cy="144.364" r="2.79207" fill="#EC6B6C"/>
<circle cx="64.9581" cy="164.578" r="2.79207" fill="#EC6B6C"/>
<circle cx="64.9581" cy="184.792" r="2.79207" fill="#EC6B6C"/>
<circle cx="85.4329" cy="2.86824" r="2.79207" fill="#EC6B6C"/>
<circle cx="85.4329" cy="23.0821" r="2.79207" fill="#EC6B6C"/>
<circle cx="85.4329" cy="43.295" r="2.79207" fill="#EC6B6C"/>
<circle cx="85.4329" cy="63.5089" r="2.79207" fill="#EC6B6C"/>
<circle cx="85.4329" cy="83.7227" r="2.79207" fill="#EC6B6C"/>
<circle cx="85.4329" cy="103.937" r="2.79207" fill="#EC6B6C"/>
<circle cx="85.4329" cy="124.15" r="2.79207" fill="#EC6B6C"/>
<circle cx="85.4329" cy="144.364" r="2.79207" fill="#EC6B6C"/>
<circle cx="85.4329" cy="164.578" r="2.79207" fill="#EC6B6C"/>
<circle cx="85.4329" cy="184.792" r="2.79207" fill="#EC6B6C"/>
<circle cx="105.907" cy="2.86824" r="2.79207" fill="#EC6B6C"/>
<circle cx="105.907" cy="23.0811" r="2.79207" fill="#EC6B6C"/>
<circle cx="105.907" cy="43.296" r="2.79207" fill="#EC6B6C"/>
<circle cx="105.907" cy="63.5089" r="2.79207" fill="#EC6B6C"/>
<circle cx="105.907" cy="83.7237" r="2.79207" fill="#EC6B6C"/>
<circle cx="105.907" cy="103.937" r="2.79207" fill="#EC6B6C"/>
<circle cx="105.907" cy="124.15" r="2.79207" fill="#EC6B6C"/>
<circle cx="105.907" cy="144.364" r="2.79207" fill="#EC6B6C"/>
<circle cx="105.907" cy="164.578" r="2.79207" fill="#EC6B6C"/>
<circle cx="105.907" cy="184.792" r="2.79207" fill="#EC6B6C"/>
<circle cx="126.384" cy="2.86824" r="2.79207" fill="#EC6B6C"/>
<circle cx="126.384" cy="23.0811" r="2.79207" fill="#EC6B6C"/>
<circle cx="126.384" cy="43.296" r="2.79207" fill="#EC6B6C"/>
<circle cx="126.384" cy="63.5089" r="2.79207" fill="#EC6B6C"/>
<circle cx="126.384" cy="83.7237" r="2.79207" fill="#EC6B6C"/>
<circle cx="126.384" cy="103.937" r="2.79207" fill="#EC6B6C"/>
<circle cx="126.384" cy="124.15" r="2.79207" fill="#EC6B6C"/>
<circle cx="126.384" cy="144.364" r="2.79207" fill="#EC6B6C"/>
<circle cx="126.384" cy="164.578" r="2.79207" fill="#EC6B6C"/>
<circle cx="126.384" cy="184.792" r="2.79207" fill="#EC6B6C"/>
<circle cx="146.858" cy="2.86824" r="2.79207" fill="#EC6B6C"/>
<circle cx="146.858" cy="23.0821" r="2.79207" fill="#EC6B6C"/>
<circle cx="146.858" cy="43.295" r="2.79207" fill="#EC6B6C"/>
<circle cx="146.858" cy="63.5089" r="2.79207" fill="#EC6B6C"/>
<circle cx="146.858" cy="83.7227" r="2.79207" fill="#EC6B6C"/>
<circle cx="146.858" cy="103.937" r="2.79207" fill="#EC6B6C"/>
<circle cx="146.858" cy="124.15" r="2.79207" fill="#EC6B6C"/>
<circle cx="146.858" cy="144.364" r="2.79207" fill="#EC6B6C"/>
<circle cx="146.858" cy="164.578" r="2.79207" fill="#EC6B6C"/>
<circle cx="146.858" cy="184.792" r="2.79207" fill="#EC6B6C"/>
<circle cx="167.333" cy="2.86824" r="2.79207" fill="#EC6B6C"/>
<circle cx="167.333" cy="23.0811" r="2.79207" fill="#EC6B6C"/>
<circle cx="167.333" cy="43.296" r="2.79207" fill="#EC6B6C"/>
<circle cx="167.333" cy="63.5089" r="2.79207" fill="#EC6B6C"/>
<circle cx="167.333" cy="83.7237" r="2.79207" fill="#EC6B6C"/>
<circle cx="167.333" cy="103.937" r="2.79207" fill="#EC6B6C"/>
<circle cx="167.333" cy="124.15" r="2.79207" fill="#EC6B6C"/>
<circle cx="167.333" cy="144.364" r="2.79207" fill="#EC6B6C"/>
<circle cx="167.333" cy="164.578" r="2.79207" fill="#EC6B6C"/>
<circle cx="167.333" cy="184.792" r="2.79207" fill="#EC6B6C"/>
</g>
</svg>
