<svg width="19" height="21" viewBox="0 0 19 21" fill="none" xmlns="http://www.w3.org/2000/svg">
<path d="M4 1.16992L1.25 4.83659V17.6699C1.25 18.1562 1.44315 18.6225 1.78697 18.9663C2.13079 19.3101 2.5971 19.5033 3.08333 19.5033H15.9167C16.4029 19.5033 16.8692 19.3101 17.213 18.9663C17.5568 18.6225 17.75 18.1562 17.75 17.6699V4.83659L15 1.16992H4Z" stroke="#315399" stroke-width="1.5" stroke-linecap="round" stroke-linejoin="round"/>
<path d="M1.25 4.83594H17.75" stroke="#315399" stroke-width="1.5" stroke-linecap="round" stroke-linejoin="round"/>
<path d="M13.1663 8.50195C13.1663 9.47441 12.78 10.407 12.0924 11.0947C11.4048 11.7823 10.4721 12.1686 9.49967 12.1686C8.52721 12.1686 7.59458 11.7823 6.90695 11.0947C6.21932 10.407 5.83301 9.47441 5.83301 8.50195" stroke="#315399" stroke-width="1.5" stroke-linecap="round" stroke-linejoin="round"/>
</svg>
