<svg width="18" height="18" viewBox="0 0 18 18" fill="none" xmlns="http://www.w3.org/2000/svg">
<g clip-path="url(#clip0_401_4)">
<path d="M6.13697 7.74257H1.7892C1.34899 7.74216 0.926915 7.56714 0.61559 7.25591C0.304265 6.94469 0.129115 6.52267 0.128571 6.08246V1.78868C0.129115 1.34847 0.304265 0.926455 0.61559 0.615227C0.926915 0.303998 1.34899 0.128979 1.7892 0.128571H6.13697C6.57709 0.129115 6.99903 0.304194 7.31025 0.615408C7.62146 0.926622 7.79654 1.34856 7.79709 1.78868V6.08246C7.79654 6.52258 7.62146 6.94452 7.31025 7.25573C6.99903 7.56695 6.57709 7.74203 6.13697 7.74257V7.74257ZM1.7892 1.41428C1.6899 1.41442 1.59469 1.45389 1.52443 1.52406C1.45416 1.59423 1.41456 1.68938 1.41428 1.78868V6.08246C1.41456 6.18176 1.45416 6.27691 1.52443 6.34708C1.59469 6.41725 1.6899 6.45672 1.7892 6.45686H6.13697C6.23623 6.45672 6.33138 6.41723 6.40156 6.34705C6.47175 6.27686 6.51123 6.18171 6.51137 6.08246V1.78868C6.51123 1.68943 6.47175 1.59428 6.40156 1.52409C6.33138 1.45391 6.23623 1.41442 6.13697 1.41428H1.7892ZM6.15806 17.8714H1.81028C1.37003 17.8709 0.947955 17.6957 0.636644 17.3844C0.325334 17.0731 0.150201 16.6511 0.149656 16.2108V11.9175C0.150201 11.4773 0.325351 11.0553 0.636676 10.7441C0.948001 10.4329 1.37007 10.2578 1.81028 10.2574H6.15806C6.598 10.2582 7.01968 10.4334 7.33067 10.7446C7.64166 11.0558 7.8166 11.4776 7.81714 11.9175V16.2108C7.81673 16.6508 7.64186 17.0727 7.33085 17.384C7.01984 17.6953 6.59809 17.8706 6.15806 17.8714V17.8714ZM1.81028 11.5431C1.71098 11.5433 1.61578 11.5827 1.54551 11.6529C1.47525 11.7231 1.43564 11.8182 1.43537 11.9175V16.2108C1.43551 16.3102 1.47505 16.4055 1.54533 16.4758C1.61561 16.546 1.71089 16.5856 1.81028 16.5857H6.15806C6.25736 16.5854 6.35251 16.5458 6.42268 16.4756C6.49285 16.4053 6.53232 16.3101 6.53246 16.2108V11.9175C6.53232 11.8183 6.49283 11.7231 6.42265 11.653C6.35246 11.5828 6.25731 11.5433 6.15806 11.5431H1.81028ZM16.2113 17.8714H11.8635C11.4233 17.8709 11.0012 17.6957 10.6899 17.3844C10.3786 17.0731 10.2035 16.6511 10.2029 16.2108V11.9175C10.2035 11.4773 10.3786 11.0553 10.6899 10.7441C11.0013 10.4329 11.4233 10.2578 11.8635 10.2574H16.2113C16.6514 10.258 17.0734 10.4331 17.3846 10.7443C17.6958 11.0555 17.8709 11.4774 17.8714 11.9175V16.2108C17.871 16.651 17.696 17.0731 17.3848 17.3844C17.0735 17.6957 16.6515 17.8709 16.2113 17.8714V17.8714ZM11.8635 11.5457C11.7642 11.5458 11.669 11.5853 11.5988 11.6555C11.5285 11.7257 11.4889 11.8208 11.4886 11.9201V16.2134C11.4888 16.3128 11.5283 16.408 11.5986 16.4783C11.6689 16.5486 11.7642 16.5881 11.8635 16.5883H16.2113C16.3106 16.588 16.4058 16.5484 16.4759 16.4781C16.5461 16.4079 16.5856 16.3127 16.5857 16.2134V11.9175C16.5856 11.8183 16.5461 11.7231 16.4759 11.653C16.4057 11.5828 16.3106 11.5433 16.2113 11.5431L11.8635 11.5457ZM14.04 7.74257C13.2885 7.73698 12.5555 7.50905 11.9334 7.08749C11.3113 6.66593 10.8279 6.06962 10.5442 5.37375C10.2605 4.67787 10.1892 3.91357 10.3392 3.17721C10.4892 2.44085 10.8539 1.76538 11.3872 1.23597C11.9206 0.706557 12.5987 0.346897 13.3362 0.202331C14.0736 0.0577643 14.8374 0.134764 15.5311 0.423622C16.2249 0.71248 16.8176 1.20027 17.2345 1.82548C17.6515 2.4507 17.874 3.18537 17.874 3.93686C17.869 4.94955 17.4625 5.9189 16.7438 6.63234C16.025 7.34577 15.0527 7.74503 14.04 7.74257V7.74257ZM14.04 1.41686C13.5428 1.42244 13.0584 1.57496 12.6478 1.85523C12.2371 2.13551 11.9185 2.531 11.7321 2.99193C11.5457 3.45287 11.4998 3.95864 11.6002 4.44559C11.7006 4.93255 11.9428 5.37892 12.2963 5.72852C12.6499 6.07813 13.0989 6.31534 13.587 6.4103C14.075 6.50527 14.5802 6.45374 15.0391 6.2622C15.4979 6.07067 15.8898 5.74769 16.1655 5.33391C16.4411 4.92013 16.5883 4.43405 16.5883 3.93686C16.5842 3.26463 16.3136 2.62148 15.8358 2.14855C15.3581 1.67562 14.7122 1.41155 14.04 1.41428V1.41686Z" fill="#202223"/>
</g>
<defs>
<clipPath id="clip0_401_4">
<rect width="18" height="18" fill="white"/>
</clipPath>
</defs>
</svg>
