<svg width="18" height="18" viewBox="0 0 18 18" fill="none" xmlns="http://www.w3.org/2000/svg">
<g clip-path="url(#clip0_401_2)">
<path d="M16.9595 13.3172C16.6805 12.8617 16.2464 12.3314 15.7375 11.8225C15.3692 11.4542 14.1044 10.2531 13.2909 10.2531C13.0299 10.2531 12.8645 10.3638 12.7717 10.4566L11.6889 11.5394C11.6702 11.5574 11.6128 11.5788 11.5075 11.5788C10.9066 11.5788 9.63208 10.9135 8.35893 9.64038C6.66139 7.94285 6.25293 6.51877 6.46062 6.31108L7.5427 5.229C7.63547 5.13554 7.74693 4.97008 7.74693 4.70977C7.74762 3.89562 6.54577 2.63077 6.17747 2.26246C5.80985 1.89346 4.545 0.692307 3.73085 0.692307C3.47054 0.692307 3.30439 0.803077 3.21162 0.896538L1.04539 3.06208C0.406388 3.70108 0.639696 4.95 1.73977 6.777C2.69447 8.36238 4.20508 10.2198 5.99262 12.0074C9.16339 15.1782 12.3743 17.3084 13.9818 17.3077C14.382 17.3077 14.7032 17.1886 14.9379 16.9546L17.1035 14.7884C17.5722 14.3204 17.1104 13.5658 16.9595 13.3172V13.3172ZM14.2041 16.2201C14.1792 16.2436 14.1092 16.2692 13.9825 16.2692C12.8873 16.2692 9.9727 14.5177 6.72716 11.2728C4.99639 9.54277 3.54254 7.75592 2.6287 6.24115C1.60131 4.53462 1.69823 3.879 1.78062 3.79592L3.81877 1.75846C4.08393 1.86092 4.70008 2.25346 5.44293 2.99769C6.18577 3.74192 6.57831 4.356 6.68216 4.62185L5.72677 5.57723C4.73054 6.57415 6.0127 8.76254 7.62508 10.3756C9.00831 11.7588 10.4961 12.618 11.5075 12.618C11.9804 12.618 12.2663 12.4311 12.4228 12.2746L13.3788 11.3192C13.6447 11.4217 14.2602 11.8142 15.0037 12.5578C15.7465 13.3006 16.1391 13.9168 16.2422 14.1819L14.2041 16.2208V16.2201Z" fill="#202223"/>
</g>
<defs>
<clipPath id="clip0_401_2">
<rect width="18" height="18" fill="white"/>
</clipPath>
</defs>
</svg>
