<svg width="102" height="76" viewBox="0 0 102 76" fill="none" xmlns="http://www.w3.org/2000/svg">
<path opacity="0.1" d="M30.506 28.7115C33.4821 28.7115 37.1032 30.5469 41.3691 34.2175C45.7341 37.7889 47.9167 42.898 47.9167 49.5449C47.9167 56.0925 45.4861 62.0945 40.625 67.5508C35.7639 73.0072 29.9603 75.7354 23.2143 75.7354C16.4683 75.7354 10.9127 73.8008 6.54762 69.9318C2.18254 66.0627 0 59.8623 0 51.3306C0 42.7988 3.91865 33.027 11.756 22.0151C19.6925 11.0032 28.7698 3.90995 38.9881 0.735352C42.3611 2.52107 44.1964 5.24924 44.4941 8.91988C40.8234 11.7969 37.5992 15.3683 34.8214 19.6342C32.1429 23.8008 30.7044 26.8266 30.506 28.7115ZM83.7798 28.7115C86.756 28.7115 90.377 30.5469 94.6429 34.2175C99.0079 37.7889 101.19 42.898 101.19 49.5449C101.19 56.0925 98.7599 62.0945 93.8988 67.5508C89.0377 73.0072 83.2341 75.7354 76.4881 75.7354C69.7421 75.7354 64.1865 73.8008 59.8214 69.9318C55.5556 66.0627 53.4226 60.7552 53.4226 54.0092C53.4226 47.2631 55.1587 40.2195 58.631 32.8782C62.2024 25.4377 67.0139 18.7413 73.0655 12.7889C79.1171 6.83654 85.5655 2.81868 92.4107 0.735352C95.7837 2.62027 97.6191 5.34845 97.9167 8.91988C94.1468 11.7969 90.873 15.3683 88.0952 19.6342C85.4167 23.8008 83.9782 26.8266 83.7798 28.7115Z" fill="#EC6B6C"/>
</svg>
