<svg width="22" height="22" viewBox="0 0 22 22" fill="none" xmlns="http://www.w3.org/2000/svg">
<path d="M8.25 16.5H13.75" stroke="#202223" stroke-width="1.5" stroke-linecap="round" stroke-linejoin="round"/>
<path d="M9.1665 20.1665H12.8332" stroke="#202223" stroke-width="1.5" stroke-linecap="round" stroke-linejoin="round"/>
<path d="M13.8325 12.8335C13.9975 11.9352 14.4283 11.2385 15.125 10.5418C15.5676 10.1344 15.919 9.63783 16.156 9.08486C16.393 8.53189 16.5102 7.93502 16.5 7.3335C16.5 5.87481 15.9205 4.47586 14.8891 3.44441C13.8576 2.41296 12.4587 1.8335 11 1.8335C9.54131 1.8335 8.14236 2.41296 7.11091 3.44441C6.07946 4.47586 5.5 5.87481 5.5 7.3335C5.5 8.25016 5.71083 9.37766 6.875 10.5418C7.53872 11.1487 7.9915 11.9515 8.1675 12.8335" stroke="#202223" stroke-width="1.5" stroke-linecap="round" stroke-linejoin="round"/>
</svg>
