<svg width="21" height="19" viewBox="0 0 21 19" fill="none" xmlns="http://www.w3.org/2000/svg">
<path d="M18.4684 2.53403C18.0085 2.07256 17.4621 1.7064 16.8604 1.45657C16.2587 1.20673 15.6137 1.07812 14.9622 1.07812C14.3107 1.07812 13.6656 1.20673 13.0639 1.45657C12.4622 1.7064 11.9158 2.07256 11.4559 2.53403L10.7501 3.24903L10.0442 2.53403C9.58437 2.07256 9.03793 1.7064 8.43625 1.45657C7.83457 1.20673 7.18949 1.07812 6.538 1.07812C5.88651 1.07812 5.24143 1.20673 4.63974 1.45657C4.03806 1.7064 3.49162 2.07256 3.03175 2.53403C1.08841 4.47736 0.969246 7.75903 3.41675 10.2524L10.7501 17.5857L18.0834 10.2524C20.5309 7.75903 20.4117 4.47736 18.4684 2.53403Z" stroke="#315399" stroke-width="1.5" stroke-linecap="round" stroke-linejoin="round"/>
</svg>
