<svg width="21" height="19" viewBox="0 0 21 19" fill="none" xmlns="http://www.w3.org/2000/svg">
<path d="M18.4684 2.86606C18.0085 2.40459 17.4621 2.03844 16.8604 1.7886C16.2587 1.53876 15.6137 1.41016 14.9622 1.41016C14.3107 1.41016 13.6656 1.53876 13.0639 1.7886C12.4622 2.03844 11.9158 2.40459 11.4559 2.86606L10.7501 3.58106L10.0442 2.86606C9.58437 2.40459 9.03793 2.03844 8.43625 1.7886C7.83457 1.53876 7.18949 1.41016 6.538 1.41016C5.88651 1.41016 5.24143 1.53876 4.63974 1.7886C4.03806 2.03844 3.49162 2.40459 3.03175 2.86606C1.08841 4.80939 0.969246 8.09106 3.41675 10.5844L10.7501 17.9177L18.0834 10.5844C20.5309 8.09106 20.4117 4.80939 18.4684 2.86606Z" stroke="#202223" stroke-width="1.5" stroke-linecap="round" stroke-linejoin="round"/>
</svg>
