<svg width="52" height="52" viewBox="0 0 52 52" fill="none" xmlns="http://www.w3.org/2000/svg">
<rect x="0.5" y="0.5" width="51" height="51" rx="6.5" stroke="#6D7175"/>
<path fill-rule="evenodd" clip-rule="evenodd" d="M18.8534 12.4724C14.979 12.7286 11.9316 13.6356 9.48502 15.2606C8.53083 15.8944 7.47924 16.9387 6.8758 17.8518C5.51483 19.911 4.83514 22.3373 4.68474 25.6733C4.42945 31.3353 5.88311 35.3383 8.99095 37.5318C11.3192 39.1751 14.4529 40.08 18.3127 40.2238C18.893 40.2454 19.3812 40.2846 19.3975 40.311C19.4395 40.3789 31.8648 40.371 32.7999 40.3023C36.6215 40.0218 39.2833 39.2699 41.7795 37.7659C45.0565 35.7915 46.7436 32.3226 46.9673 27.0997C47.1901 21.8949 45.9911 18.0979 43.4106 15.8362C41.1238 13.832 37.6734 12.7152 33.2392 12.544C32.6857 12.5226 32.2329 12.4835 32.2329 12.4572C32.2329 12.3959 19.797 12.41 18.8534 12.4724ZM20.8519 13.2575L21.8582 13.2597V26.4213V39.583L20.7101 39.5475C16.9596 39.4315 15.3629 38.648 14.2181 36.362C13.5997 35.127 13.1612 33.2698 12.9466 30.9761C12.8945 30.4185 12.8725 29.1118 12.8728 26.5825C12.8733 22.6863 12.9076 22.0451 13.2162 20.165C13.7658 16.8158 14.9189 14.8537 16.9259 13.8524C17.397 13.6175 18.3624 13.3352 19.0235 13.2392C19.1015 13.2279 19.3183 13.2269 19.5054 13.2369C19.6925 13.247 20.2984 13.2562 20.8519 13.2575ZM32.4112 13.3194C33.1266 13.3921 33.694 13.5029 34.3301 13.694C35.7671 14.1256 36.6568 14.8954 37.3902 16.3412C38.1365 17.8127 38.5671 19.7879 38.7515 22.5856C38.8256 23.7097 38.825 28.5815 38.7506 29.7299C38.4907 33.7441 37.7095 36.312 36.2954 37.8006C35.7059 38.421 34.7098 39.0189 33.8325 39.2787C33.0391 39.5137 32.5572 39.5649 31.1416 39.565L29.7951 39.5651V26.4124V13.2597H30.8096C31.3676 13.2597 32.0883 13.2865 32.4112 13.3194Z" fill="#6D7175"/>
</svg>
