<svg width="227" height="53" viewBox="0 0 227 53" fill="none" xmlns="http://www.w3.org/2000/svg">
<rect x="0.5" y="0.609375" width="52" height="52" rx="7" fill="white"/>
<path fill-rule="evenodd" clip-rule="evenodd" d="M19.3534 13.0818C15.479 13.338 12.4316 14.245 9.98502 15.87C9.03083 16.5038 7.97924 17.5481 7.3758 18.4612C6.01483 20.5203 5.33514 22.9467 5.18474 26.2827C4.92945 31.9447 6.38311 35.9477 9.49095 38.1412C11.8192 39.7845 14.9529 40.6894 18.8127 40.8331C19.393 40.8547 19.8812 40.894 19.8975 40.9203C19.9395 40.9883 32.3648 40.9804 33.2999 40.9117C37.1215 40.6312 39.7833 39.8793 42.2795 38.3753C45.5565 36.4009 47.2436 32.932 47.4673 27.709C47.6901 22.5043 46.4911 18.7073 43.9106 16.4456C41.6238 14.4414 38.1734 13.3246 33.7392 13.1534C33.1857 13.132 32.7329 13.0929 32.7329 13.0666C32.7329 13.0053 20.297 13.0194 19.3534 13.0818ZM21.3519 13.8668L22.3582 13.869V27.0307V40.1923L21.2101 40.1568C17.4596 40.0409 15.8629 39.2574 14.7181 36.9713C14.0997 35.7363 13.6612 33.8792 13.4466 31.5855C13.3945 31.0279 13.3725 29.7211 13.3728 27.1918C13.3733 23.2956 13.4076 22.6545 13.7162 20.7744C14.2658 17.4252 15.4189 15.4631 17.4259 14.4618C17.897 14.2268 18.8624 13.9446 19.5235 13.8486C19.6015 13.8373 19.8183 13.8363 20.0054 13.8463C20.1925 13.8563 20.7984 13.8656 21.3519 13.8668ZM32.9112 13.9287C33.6266 14.0015 34.194 14.1123 34.8301 14.3034C36.2671 14.735 37.1568 15.5048 37.8902 16.9506C38.6365 18.422 39.0671 20.3973 39.2515 23.195C39.3256 24.3191 39.325 29.1908 39.2506 30.3393C38.9907 34.3535 38.2095 36.9214 36.7954 38.41C36.2059 39.0304 35.2098 39.6283 34.3325 39.8881C33.5391 40.1231 33.0572 40.1743 31.6416 40.1744L30.2951 40.1745V27.0218V13.869H31.3096C31.8676 13.869 32.5883 13.8959 32.9112 13.9287Z" fill="#315399"/>
<path fill-rule="evenodd" clip-rule="evenodd" d="M108.308 14.6883C105.732 15.2067 104.936 18.044 106.941 19.5649C107.403 19.9154 107.738 19.9925 109.029 20.0461C111.818 20.162 113.062 19.3052 113.062 17.2677C113.062 16.0847 112.694 15.5004 111.635 15.0031C110.906 14.6604 109.233 14.5022 108.308 14.6883ZM60.6012 15.6269C60.2849 15.887 60.7185 16.0376 61.7835 16.0376H62.8959V26.1233V36.209H61.7714C60.9083 36.209 60.647 36.2675 60.647 36.4611C60.647 36.6793 61.4255 36.7133 66.4279 36.7133C74.391 36.7133 77.3469 36.3643 80.3723 35.0669C84.0299 33.4983 85.6961 30.9206 85.9357 26.4595C86.2528 20.5572 83.7009 17.3904 77.5139 16.0082C76.0055 15.6711 75.2905 15.6374 68.3136 15.5742C64.1529 15.5365 60.6824 15.5602 60.6012 15.6269ZM157.964 15.7854C157.964 15.9816 158.237 16.0376 159.191 16.0376H160.417V26.1233V36.209H159.191C158.237 36.209 157.964 36.265 157.964 36.4611C157.964 36.6793 158.741 36.7131 163.74 36.7119C171.932 36.7099 174.377 36.4347 177.573 35.1545C180.483 33.9891 182.212 32.1643 183.037 29.3902C183.529 27.7363 183.533 23.7466 183.044 22.2571C182.04 19.1996 180.14 17.4751 176.617 16.4237C174.203 15.7031 171.948 15.5353 164.66 15.5343C158.844 15.5335 157.964 15.5664 157.964 15.7854ZM74.5999 16.4592C76.4768 17.0046 77.6944 18.6716 78.2211 21.4166C78.4836 22.7844 78.4914 28.8604 78.2326 30.3309C77.5325 34.3082 75.7547 35.9279 71.8403 36.1552L70.0516 36.2589V26.125V15.991L71.8405 16.084C72.8245 16.1353 74.0661 16.304 74.5999 16.4592ZM171.804 16.3773C173.615 16.8255 174.719 18.0154 175.465 20.324C176.01 22.0108 176.031 29.4191 175.495 31.3951C175.016 33.1624 174.074 34.5879 172.971 35.2117C171.94 35.7951 170.149 36.209 168.655 36.209H167.573V26.0996V15.9902L169.26 16.0776C170.188 16.1257 171.332 16.2605 171.804 16.3773ZM130.773 18.1707C130.604 18.22 130.125 18.4489 129.708 18.6797C128.662 19.2585 128.229 20.2292 128.371 21.68C128.466 22.6573 128.44 22.7698 128.143 22.6656C126.586 22.1194 126.088 22.0586 123.719 22.1243C121.567 22.184 121.109 22.2507 119.989 22.6678C117.518 23.5871 116.274 25.3386 116.526 27.5423C116.59 28.1024 116.78 28.8315 116.949 29.1624C117.356 29.9612 118.587 30.9234 119.672 31.29C120.154 31.4529 120.549 31.6287 120.549 31.6805C120.55 31.7323 119.951 32.1011 119.218 32.5001C117.597 33.3823 116.953 33.9868 116.652 34.9072C116.356 35.8094 116.655 36.6786 117.5 37.373C118.482 38.1812 119.739 38.3942 123.524 38.3942C128.506 38.3942 129.858 38.7054 130.239 39.9398C130.691 41.4026 129.58 42.7766 127.464 43.3727C125.957 43.797 122.848 43.8018 121.524 43.3819C119.949 42.8823 119.324 41.8033 119.693 40.2216L119.875 39.4435L118.777 39.0696C117.487 38.6299 116.962 38.6949 115.959 39.4191C114.809 40.2493 114.647 41.4134 115.527 42.5181C115.912 43.0019 117.621 43.669 119.221 43.9608C121.087 44.3011 126.844 44.254 128.524 43.8849C131.14 43.3098 132.709 42.3861 133.623 40.8827C134.735 39.052 134.413 36.6267 132.885 35.3401C131.305 34.0086 128.648 33.5233 122.901 33.5171C121.552 33.5156 120.323 33.4492 120.171 33.3699C119.794 33.1735 120.03 32.6677 120.679 32.2798C121.133 32.0083 121.622 31.9617 124.2 31.9436C127.042 31.9236 127.26 31.8978 128.472 31.4376C129.937 30.8814 131.201 29.8515 131.609 28.8827C131.761 28.5207 131.885 27.695 131.885 27.0478C131.884 25.6116 131.236 24.4506 129.943 23.5674C129.139 23.0184 129.09 22.932 128.988 21.8809C128.861 20.5809 128.997 20.0186 129.551 19.5634C130.107 19.1065 131.099 19.1267 131.408 19.6012C131.619 19.9255 131.573 20.0236 131.035 20.3997C130.517 20.7617 130.449 20.8947 130.6 21.2558C130.698 21.4908 131.044 21.8123 131.369 21.9702C133.31 22.9127 135.411 21.3338 134.644 19.5096C134.41 18.9525 134.166 18.7345 133.438 18.433C132.581 18.0774 131.468 17.968 130.773 18.1707ZM100.955 22.4252C100.402 23.0404 100.173 23.0461 98.2498 22.4921C96.9422 22.1154 96.4762 22.064 94.8848 22.1201C93.4676 22.1702 92.8254 22.2754 92.1248 22.5724C90.0699 23.4438 89.0529 24.7849 88.9045 26.8197C88.7117 29.461 90.1672 30.7956 94.3809 31.8412C98.1069 32.7659 98.5917 32.9214 99.1316 33.3655C100.3 34.326 99.5822 35.8129 97.7688 36.1885C94.067 36.9548 90.7705 35.467 89.5665 32.4865C89.3852 32.0377 89.1521 31.6704 89.0489 31.6704C88.9421 31.6704 88.8608 32.8357 88.8608 34.3599C88.8608 35.8392 88.9096 37.0494 88.9693 37.0494C89.0288 37.0494 89.3604 36.7847 89.706 36.4611C90.3166 35.8893 91.0173 35.7097 91.4266 36.0202C91.5335 36.1012 92.1728 36.3364 92.8475 36.5428C94.3156 36.9921 97.1979 37.053 98.699 36.6664C101.249 36.0096 102.6 34.4946 102.733 32.1441C102.907 29.0473 101.245 27.6975 95.7214 26.4479C92.8442 25.7969 92.0501 25.3505 92.0501 24.3842C92.0501 23.1705 93.5725 22.483 95.9201 22.6363C98.0556 22.7757 99.6752 23.7602 100.817 25.6129C101.104 26.0786 101.429 26.4595 101.54 26.4595C101.662 26.4595 101.741 25.5651 101.741 24.1902C101.741 22.9421 101.666 21.9209 101.575 21.9209C101.484 21.9209 101.205 22.1478 100.955 22.4252ZM146.617 22.4077C145.662 22.7713 144.889 23.4176 144.287 24.3558L143.857 25.0256V23.6414V22.2571H139.462C135.765 22.2571 135.066 22.2958 135.066 22.5C135.066 22.6706 135.355 22.7582 136.037 22.7942L137.008 22.8454L137.062 29.5272L137.115 36.209H136.09C135.316 36.209 135.066 36.2705 135.066 36.4611C135.066 36.6785 135.77 36.7133 140.177 36.7133C144.584 36.7133 145.288 36.6785 145.288 36.4611C145.288 36.2843 145.071 36.209 144.562 36.209H143.835L143.897 31.0401L143.959 25.8711L144.515 25.0053C145.243 23.8707 145.971 23.4025 146.908 23.4676C148.125 23.5523 148.144 23.6565 148.148 30.2836L148.151 36.209H147.435C146.935 36.209 146.719 36.285 146.719 36.4611C146.719 36.6786 147.435 36.7133 151.933 36.7133C156.347 36.7133 157.146 36.6759 157.146 36.4699C157.146 36.2949 156.845 36.2123 156.073 36.1757L155 36.1249L154.897 30.5778C154.802 25.3692 154.769 24.9834 154.359 24.2561C153.895 23.4307 152.995 22.7654 151.775 22.3464C150.677 21.969 147.676 22.0046 146.617 22.4077ZM196.911 22.4124C196.157 22.6888 195.006 23.5936 194.419 24.3716C194.216 24.6402 194.173 24.4897 194.163 23.4758L194.151 22.2571H189.858C186.178 22.2571 185.565 22.2931 185.565 22.5092C185.565 22.696 185.803 22.7614 186.485 22.7614H187.405V33.0992V43.4371H186.389C185.57 43.4371 185.396 43.486 185.491 43.6892C185.592 43.9062 186.544 43.9413 192.333 43.9413C198.175 43.9413 199.058 43.9082 199.058 43.6892C199.058 43.4798 198.661 43.4371 196.707 43.4371H194.356V39.5394V35.6418L194.918 36.0828C195.742 36.7293 196.512 36.9187 198.343 36.9251C202.94 36.9412 205.197 35.2048 205.827 31.1683C206.113 29.3326 205.834 26.818 205.187 25.3958C204.641 24.1949 203.325 22.9823 202.03 22.4867C200.718 21.9841 198.181 21.9475 196.911 22.4124ZM213.625 22.3487C209.646 23.2297 207.447 25.7999 207.447 29.5692C207.447 32.8741 209.289 35.4368 212.34 36.3749C214.483 37.0337 218.524 37.1078 220.706 36.5282C224.757 35.452 226.756 31.8484 225.816 27.3137C225.254 24.5998 223.519 23.0527 220.218 22.32C218.887 22.0243 215.014 22.0413 213.625 22.3487ZM103.785 22.5092C103.785 22.7029 104.047 22.7614 104.91 22.7614H106.034V29.4852V36.209H105.012C104.24 36.209 103.99 36.2707 103.99 36.4611C103.99 36.679 104.728 36.7133 109.408 36.7133C114.087 36.7133 114.826 36.679 114.826 36.4611C114.826 36.2707 114.576 36.209 113.803 36.209H112.781V29.233V22.2571H108.283C104.421 22.2571 103.785 22.2927 103.785 22.5092ZM124.738 22.5923C125.731 22.9028 125.939 23.675 125.935 27.0478C125.931 30.4265 125.717 31.232 124.771 31.4272C124.005 31.5854 123.602 31.467 123.127 30.9441C122.738 30.5153 122.69 30.204 122.628 27.6807C122.541 24.2164 122.655 23.5262 123.414 22.9021C124.075 22.3586 124.027 22.3699 124.738 22.5923ZM218.12 22.9589C218.868 23.672 218.982 24.5413 218.987 29.5692C218.992 34.5827 218.889 35.3556 218.12 36.0795C217.66 36.5127 216.596 36.622 215.865 36.3112C215.408 36.1165 215.147 35.8151 214.869 35.1616C214.54 34.3851 214.494 33.7054 214.494 29.6533C214.494 26.3633 214.572 24.7812 214.765 24.1657C215.022 23.3428 215.56 22.7479 216.232 22.5422C216.751 22.383 217.747 22.6027 218.12 22.9589ZM197.72 23.3701C197.902 23.4275 198.207 23.7111 198.399 24.0004C198.693 24.4457 198.757 25.1653 198.818 28.6874C198.904 33.6102 198.705 35.012 197.822 35.7385C197.507 35.9974 197.054 36.209 196.815 36.209C196.003 36.209 195.152 35.7015 194.753 34.9792C194.406 34.3502 194.364 33.8392 194.36 30.1455C194.355 25.4897 194.494 24.8441 195.717 23.8385C196.392 23.284 196.998 23.1421 197.72 23.3701Z" fill="white"/>
</svg>
