<svg width="226" height="52" viewBox="0 0 226 52" fill="none" xmlns="http://www.w3.org/2000/svg">
<rect x="0.5" y="0.5" width="51" height="51" rx="6.5" stroke="#315399"/>
<path fill-rule="evenodd" clip-rule="evenodd" d="M18.8534 12.4724C14.979 12.7286 11.9316 13.6356 9.48502 15.2606C8.53083 15.8944 7.47924 16.9387 6.8758 17.8518C5.51483 19.911 4.83514 22.3373 4.68474 25.6733C4.42945 31.3353 5.88311 35.3383 8.99095 37.5318C11.3192 39.1751 14.4529 40.08 18.3127 40.2238C18.893 40.2454 19.3812 40.2846 19.3975 40.311C19.4395 40.3789 31.8648 40.371 32.7999 40.3023C36.6215 40.0218 39.2833 39.2699 41.7795 37.7659C45.0565 35.7915 46.7436 32.3226 46.9673 27.0997C47.1901 21.8949 45.9911 18.0979 43.4106 15.8362C41.1238 13.832 37.6734 12.7152 33.2392 12.544C32.6857 12.5226 32.2329 12.4835 32.2329 12.4572C32.2329 12.3959 19.797 12.41 18.8534 12.4724ZM20.8519 13.2575L21.8582 13.2597V26.4213V39.583L20.7101 39.5475C16.9596 39.4315 15.3629 38.648 14.2181 36.362C13.5997 35.127 13.1612 33.2698 12.9466 30.9761C12.8945 30.4185 12.8725 29.1118 12.8728 26.5825C12.8733 22.6863 12.9076 22.0451 13.2162 20.165C13.7658 16.8158 14.9189 14.8537 16.9259 13.8524C17.397 13.6175 18.3624 13.3352 19.0235 13.2392C19.1015 13.2279 19.3183 13.2269 19.5054 13.2369C19.6925 13.247 20.2984 13.2562 20.8519 13.2575ZM32.4112 13.3194C33.1266 13.3921 33.694 13.5029 34.3301 13.694C35.7671 14.1256 36.6568 14.8954 37.3902 16.3412C38.1365 17.8127 38.5671 19.7879 38.7515 22.5856C38.8256 23.7097 38.825 28.5815 38.7506 29.7299C38.4907 33.7441 37.7095 36.312 36.2954 37.8006C35.7059 38.421 34.7098 39.0189 33.8325 39.2787C33.0391 39.5137 32.5572 39.5649 31.1416 39.565L29.7951 39.5651V26.4124V13.2597H30.8096C31.3676 13.2597 32.0883 13.2865 32.4112 13.3194Z" fill="#315399"/>
<path fill-rule="evenodd" clip-rule="evenodd" d="M107.808 14.0789C105.232 14.5973 104.436 17.4346 106.441 18.9555C106.903 19.306 107.238 19.3832 108.529 19.4368C111.318 19.5526 112.562 18.6958 112.562 16.6583C112.562 15.4753 112.194 14.891 111.135 14.3938C110.406 14.051 108.733 13.8928 107.808 14.0789ZM60.1012 15.0176C59.7849 15.2776 60.2185 15.4282 61.2835 15.4282H62.3959V25.5139V35.5996H61.2714C60.4083 35.5996 60.147 35.6581 60.147 35.8518C60.147 36.0699 60.9255 36.1039 65.9279 36.1039C73.891 36.1039 76.8469 35.7549 79.8723 34.4576C83.5299 32.8889 85.1961 30.3112 85.4357 25.8501C85.7528 19.9478 83.2009 16.781 77.0139 15.3988C75.5055 15.0618 74.7905 15.028 67.8136 14.9648C63.6529 14.9271 60.1824 14.9508 60.1012 15.0176ZM157.464 15.1761C157.464 15.3722 157.737 15.4282 158.691 15.4282H159.917V25.5139V35.5996H158.691C157.737 35.5996 157.464 35.6556 157.464 35.8518C157.464 36.0699 158.241 36.1037 163.24 36.1026C171.432 36.1005 173.877 35.8254 177.073 34.5452C179.983 33.3798 181.712 31.5549 182.537 28.7808C183.029 27.127 183.033 23.1372 182.544 21.6477C181.54 18.5903 179.64 16.8658 176.117 15.8143C173.703 15.0937 171.448 14.926 164.16 14.925C158.344 14.9241 157.464 14.957 157.464 15.1761ZM74.0999 15.8498C75.9768 16.3953 77.1944 18.0623 77.7211 20.8073C77.9836 22.175 77.9914 28.251 77.7326 29.7215C77.0325 33.6988 75.2547 35.3186 71.3403 35.5458L69.5516 35.6495V25.5156V15.3817L71.3405 15.4746C72.3245 15.5259 73.5661 15.6946 74.0999 15.8498ZM171.304 15.7679C173.115 16.2161 174.219 17.406 174.965 19.7146C175.51 21.4015 175.531 28.8098 174.995 30.7857C174.516 32.5531 173.574 33.9785 172.471 34.6023C171.44 35.1858 169.649 35.5996 168.155 35.5996H167.073V25.4902V15.3808L168.76 15.4682C169.688 15.5163 170.832 15.6511 171.304 15.7679ZM130.273 17.5613C130.104 17.6106 129.625 17.8395 129.208 18.0703C128.162 18.6491 127.729 19.6198 127.871 21.0707C127.966 22.048 127.94 22.1604 127.643 22.0562C126.086 21.5101 125.588 21.4492 123.219 21.5149C121.067 21.5746 120.609 21.6413 119.489 22.0584C117.018 22.9777 115.774 24.7292 116.026 26.933C116.09 27.4931 116.28 28.2221 116.449 28.5531C116.856 29.3519 118.087 30.314 119.172 30.6806C119.654 30.8435 120.049 31.0194 120.049 31.0711C120.05 31.1229 119.451 31.4917 118.718 31.8908C117.097 32.7729 116.453 33.3774 116.152 34.2979C115.856 35.2 116.155 36.0693 117 36.7637C117.982 37.5719 119.239 37.7848 123.024 37.7848C128.006 37.7848 129.358 38.096 129.739 39.3305C130.191 40.7932 129.08 42.1672 126.964 42.7633C125.457 43.1876 122.348 43.1925 121.024 42.7726C119.449 42.273 118.824 41.194 119.193 39.6122L119.375 38.8341L118.277 38.4602C116.987 38.0205 116.462 38.0856 115.459 38.8097C114.309 39.6399 114.147 40.804 115.027 41.9087C115.412 42.3925 117.121 43.0597 118.721 43.3515C120.587 43.6917 126.344 43.6446 128.024 43.2755C130.64 42.7004 132.209 41.7768 133.123 40.2733C134.235 38.4426 133.913 36.0173 132.385 34.7307C130.805 33.3992 128.148 32.914 122.401 32.9077C121.052 32.9062 119.823 32.8398 119.671 32.7605C119.294 32.5642 119.53 32.0583 120.179 31.6704C120.633 31.3989 121.122 31.3523 123.7 31.3342C126.542 31.3142 126.76 31.2885 127.972 30.8282C129.437 30.272 130.701 29.2421 131.109 28.2734C131.261 27.9113 131.385 27.0856 131.385 26.4384C131.384 25.0022 130.736 23.8412 129.443 22.958C128.639 22.409 128.59 22.3226 128.488 21.2715C128.361 19.9715 128.497 19.4092 129.051 18.954C129.607 18.4971 130.599 18.5173 130.908 18.9918C131.119 19.3161 131.073 19.4143 130.535 19.7903C130.017 20.1524 129.949 20.2853 130.1 20.6464C130.198 20.8814 130.544 21.2029 130.869 21.3608C132.81 22.3033 134.911 20.7244 134.144 18.9002C133.91 18.3432 133.666 18.1251 132.938 17.8236C132.081 17.4681 130.968 17.3586 130.273 17.5613ZM100.455 21.8158C99.9023 22.4311 99.6727 22.4368 97.7498 21.8827C96.4422 21.506 95.9762 21.4546 94.3848 21.5107C92.9676 21.5608 92.3254 21.666 91.6248 21.9631C89.5699 22.8345 88.5529 24.1755 88.4045 26.2103C88.2117 28.8516 89.6672 30.1863 93.8809 31.2318C97.6069 32.1565 98.0917 32.312 98.6316 32.7561C99.8 33.7166 99.0822 35.2036 97.2688 35.5791C93.567 36.3454 90.2705 34.8576 89.0665 31.8771C88.8852 31.4283 88.6521 31.061 88.5489 31.061C88.4421 31.061 88.3608 32.2263 88.3608 33.7506C88.3608 35.2298 88.4096 36.4401 88.4693 36.4401C88.5288 36.4401 88.8604 36.1753 89.206 35.8518C89.8166 35.2799 90.5173 35.1004 90.9266 35.4108C91.0335 35.4919 91.6728 35.727 92.3475 35.9334C93.8156 36.3828 96.6979 36.4436 98.199 36.057C100.749 35.4003 102.1 33.8852 102.233 31.5347C102.407 28.4379 100.745 27.0881 95.2214 25.8385C92.3442 25.1875 91.5501 24.7412 91.5501 23.7748C91.5501 22.5612 93.0725 21.8737 95.4201 22.027C97.5556 22.1663 99.1752 23.1508 100.317 25.0036C100.604 25.4692 100.929 25.8501 101.04 25.8501C101.162 25.8501 101.241 24.9557 101.241 23.5808C101.241 22.3327 101.166 21.3115 101.075 21.3115C100.984 21.3115 100.705 21.5385 100.455 21.8158ZM146.117 21.7983C145.162 22.1619 144.389 22.8083 143.787 23.7464L143.357 24.4162V23.032V21.6477H138.962C135.265 21.6477 134.566 21.6864 134.566 21.8906C134.566 22.0613 134.855 22.1488 135.537 22.1848L136.508 22.2361L136.562 28.9178L136.615 35.5996H135.59C134.816 35.5996 134.566 35.6611 134.566 35.8518C134.566 36.0691 135.27 36.1039 139.677 36.1039C144.084 36.1039 144.788 36.0691 144.788 35.8518C144.788 35.6749 144.571 35.5996 144.062 35.5996H143.335L143.397 30.4307L143.459 25.2618L144.015 24.3959C144.743 23.2613 145.471 22.7931 146.408 22.8582C147.625 22.9429 147.644 23.0471 147.648 29.6743L147.651 35.5996H146.935C146.435 35.5996 146.219 35.6756 146.219 35.8518C146.219 36.0693 146.935 36.1039 151.433 36.1039C155.847 36.1039 156.646 36.0666 156.646 35.8605C156.646 35.6855 156.345 35.603 155.573 35.5663L154.5 35.5156L154.397 29.9684C154.302 24.7598 154.269 24.3741 153.859 23.6467C153.395 22.8214 152.495 22.156 151.275 21.737C150.177 21.3596 147.176 21.3953 146.117 21.7983ZM196.411 21.8031C195.657 22.0794 194.506 22.9842 193.919 23.7622C193.716 24.0308 193.673 23.8804 193.663 22.8664L193.651 21.6477H189.358C185.678 21.6477 185.065 21.6837 185.065 21.8999C185.065 22.0866 185.303 22.152 185.985 22.152H186.905V32.4899V42.8277H185.889C185.07 42.8277 184.896 42.8766 184.991 43.0798C185.092 43.2968 186.044 43.332 191.833 43.332C197.675 43.332 198.558 43.2989 198.558 43.0798C198.558 42.8704 198.161 42.8277 196.207 42.8277H193.856V38.9301V35.0325L194.418 35.4734C195.242 36.1199 196.012 36.3093 197.843 36.3157C202.44 36.3318 204.697 34.5954 205.327 30.5589C205.613 28.7232 205.334 26.2086 204.687 24.7864C204.141 23.5855 202.825 22.3729 201.53 21.8774C200.218 21.3748 197.681 21.3381 196.411 21.8031ZM213.125 21.7394C209.146 22.6203 206.947 25.1905 206.947 28.9599C206.947 32.2648 208.789 34.8274 211.84 35.7655C213.983 36.4243 218.024 36.4984 220.206 35.9188C224.257 34.8427 226.256 31.239 225.316 26.7043C224.754 23.9905 223.019 22.4433 219.718 21.7106C218.387 21.4149 214.514 21.4319 213.125 21.7394ZM103.285 21.8999C103.285 22.0935 103.547 22.152 104.41 22.152H105.534V28.8758V35.5996H104.512C103.74 35.5996 103.49 35.6613 103.49 35.8518C103.49 36.0696 104.228 36.1039 108.908 36.1039C113.587 36.1039 114.326 36.0696 114.326 35.8518C114.326 35.6613 114.076 35.5996 113.303 35.5996H112.281V28.6237V21.6477H107.783C103.921 21.6477 103.285 21.6834 103.285 21.8999ZM124.238 21.9829C125.231 22.2934 125.439 23.0656 125.435 26.4384C125.431 29.8171 125.217 30.6226 124.271 30.8178C123.505 30.976 123.102 30.8576 122.627 30.3347C122.238 29.9059 122.19 29.5946 122.128 27.0713C122.041 23.6071 122.155 22.9168 122.914 22.2927C123.575 21.7493 123.527 21.7605 124.238 21.9829ZM217.62 22.3495C218.368 23.0626 218.482 23.932 218.487 28.9599C218.492 33.9733 218.389 34.7462 217.62 35.4702C217.16 35.9034 216.096 36.0126 215.365 35.7018C214.908 35.5071 214.647 35.2057 214.369 34.5522C214.04 33.7758 213.994 33.096 213.994 29.0439C213.994 25.754 214.072 24.1718 214.265 23.5563C214.522 22.7335 215.06 22.1386 215.732 21.9328C216.251 21.7736 217.247 21.9933 217.62 22.3495ZM197.22 22.7607C197.402 22.8182 197.707 23.1017 197.899 23.391C198.193 23.8363 198.257 24.556 198.318 28.078C198.404 33.0009 198.205 34.4026 197.322 35.1291C197.007 35.388 196.554 35.5996 196.315 35.5996C195.503 35.5996 194.652 35.0921 194.253 34.3698C193.906 33.7408 193.864 33.2298 193.86 29.5361C193.855 24.8804 193.994 24.2347 195.217 23.2292C195.892 22.6746 196.498 22.5327 197.22 22.7607Z" fill="#315399"/>
</svg>
