<svg width="23" height="23" viewBox="0 0 23 23" fill="none" xmlns="http://www.w3.org/2000/svg">
<path d="M6 2.50146L3.25 6.16813V19.0015C3.25 19.4877 3.44315 19.954 3.78697 20.2978C4.13079 20.6416 4.5971 20.8348 5.08333 20.8348H17.9167C18.4029 20.8348 18.8692 20.6416 19.213 20.2978C19.5568 19.954 19.75 19.4877 19.75 19.0015V6.16813L17 2.50146H6Z" stroke="black" stroke-width="1.5" stroke-linecap="round" stroke-linejoin="round"/>
<path d="M3.25 6.16797H19.75" stroke="black" stroke-width="1.5" stroke-linecap="round" stroke-linejoin="round"/>
<path d="M15.1663 9.83447C15.1663 10.8069 14.78 11.7396 14.0924 12.4272C13.4048 13.1148 12.4721 13.5011 11.4997 13.5011C10.5272 13.5011 9.59458 13.1148 8.90695 12.4272C8.21932 11.7396 7.83301 10.8069 7.83301 9.83447" stroke="black" stroke-width="1.5" stroke-linecap="round" stroke-linejoin="round"/>
</svg>
