<svg width="110" height="109" viewBox="0 0 110 109" fill="none" xmlns="http://www.w3.org/2000/svg">
<g opacity="0.5">
<circle cx="1.68919" cy="1.99193" r="1.60912" fill="#EC6B6C"/>
<circle cx="1.68919" cy="13.6413" r="1.60912" fill="#EC6B6C"/>
<circle cx="1.68919" cy="25.2908" r="1.60912" fill="#EC6B6C"/>
<circle cx="1.68919" cy="36.9402" r="1.60912" fill="#EC6B6C"/>
<circle cx="1.68919" cy="48.5906" r="1.60912" fill="#EC6B6C"/>
<circle cx="1.68919" cy="60.239" r="1.60912" fill="#EC6B6C"/>
<circle cx="1.68919" cy="71.8894" r="1.60912" fill="#EC6B6C"/>
<circle cx="1.68919" cy="83.5388" r="1.60912" fill="#EC6B6C"/>
<circle cx="1.68919" cy="95.1892" r="1.60912" fill="#EC6B6C"/>
<circle cx="1.68919" cy="106.838" r="1.60912" fill="#EC6B6C"/>
<circle cx="13.4894" cy="1.99193" r="1.60912" fill="#EC6B6C"/>
<circle cx="13.4894" cy="13.6413" r="1.60912" fill="#EC6B6C"/>
<circle cx="13.4894" cy="25.2908" r="1.60912" fill="#EC6B6C"/>
<circle cx="13.4894" cy="36.9402" r="1.60912" fill="#EC6B6C"/>
<circle cx="13.4894" cy="48.5906" r="1.60912" fill="#EC6B6C"/>
<circle cx="13.4894" cy="60.239" r="1.60912" fill="#EC6B6C"/>
<circle cx="13.4894" cy="71.8894" r="1.60912" fill="#EC6B6C"/>
<circle cx="13.4894" cy="83.5388" r="1.60912" fill="#EC6B6C"/>
<circle cx="13.4894" cy="95.1892" r="1.60912" fill="#EC6B6C"/>
<circle cx="13.4894" cy="106.838" r="1.60912" fill="#EC6B6C"/>
<circle cx="25.2895" cy="1.99193" r="1.60912" fill="#EC6B6C"/>
<circle cx="25.2895" cy="13.6413" r="1.60912" fill="#EC6B6C"/>
<circle cx="25.2895" cy="25.2908" r="1.60912" fill="#EC6B6C"/>
<circle cx="25.2895" cy="36.9402" r="1.60912" fill="#EC6B6C"/>
<circle cx="25.2895" cy="48.5906" r="1.60912" fill="#EC6B6C"/>
<circle cx="25.2895" cy="60.239" r="1.60912" fill="#EC6B6C"/>
<circle cx="25.2895" cy="71.8894" r="1.60912" fill="#EC6B6C"/>
<circle cx="25.2895" cy="83.5388" r="1.60912" fill="#EC6B6C"/>
<circle cx="25.2895" cy="95.1892" r="1.60912" fill="#EC6B6C"/>
<circle cx="25.2895" cy="106.838" r="1.60912" fill="#EC6B6C"/>
<circle cx="37.0897" cy="1.99193" r="1.60912" fill="#EC6B6C"/>
<circle cx="37.0897" cy="13.6413" r="1.60912" fill="#EC6B6C"/>
<circle cx="37.0897" cy="25.2908" r="1.60912" fill="#EC6B6C"/>
<circle cx="37.0897" cy="36.9402" r="1.60912" fill="#EC6B6C"/>
<circle cx="37.0897" cy="48.5906" r="1.60912" fill="#EC6B6C"/>
<circle cx="37.0897" cy="60.239" r="1.60912" fill="#EC6B6C"/>
<circle cx="37.0897" cy="71.8894" r="1.60912" fill="#EC6B6C"/>
<circle cx="37.0897" cy="83.5388" r="1.60912" fill="#EC6B6C"/>
<circle cx="37.0897" cy="95.1892" r="1.60912" fill="#EC6B6C"/>
<circle cx="37.0897" cy="106.838" r="1.60912" fill="#EC6B6C"/>
<circle cx="48.89" cy="1.99193" r="1.60912" fill="#EC6B6C"/>
<circle cx="48.89" cy="13.6413" r="1.60912" fill="#EC6B6C"/>
<circle cx="48.89" cy="25.2908" r="1.60912" fill="#EC6B6C"/>
<circle cx="48.89" cy="36.9402" r="1.60912" fill="#EC6B6C"/>
<circle cx="48.89" cy="48.5906" r="1.60912" fill="#EC6B6C"/>
<circle cx="48.89" cy="60.239" r="1.60912" fill="#EC6B6C"/>
<circle cx="48.89" cy="71.8894" r="1.60912" fill="#EC6B6C"/>
<circle cx="48.89" cy="83.5388" r="1.60912" fill="#EC6B6C"/>
<circle cx="48.89" cy="95.1892" r="1.60912" fill="#EC6B6C"/>
<circle cx="48.89" cy="106.838" r="1.60912" fill="#EC6B6C"/>
<circle cx="60.6902" cy="1.99193" r="1.60912" fill="#EC6B6C"/>
<circle cx="60.6902" cy="13.6413" r="1.60912" fill="#EC6B6C"/>
<circle cx="60.6902" cy="25.2908" r="1.60912" fill="#EC6B6C"/>
<circle cx="60.6902" cy="36.9402" r="1.60912" fill="#EC6B6C"/>
<circle cx="60.6902" cy="48.5906" r="1.60912" fill="#EC6B6C"/>
<circle cx="60.6902" cy="60.239" r="1.60912" fill="#EC6B6C"/>
<circle cx="60.6902" cy="71.8894" r="1.60912" fill="#EC6B6C"/>
<circle cx="60.6902" cy="83.5388" r="1.60912" fill="#EC6B6C"/>
<circle cx="60.6902" cy="95.1892" r="1.60912" fill="#EC6B6C"/>
<circle cx="60.6902" cy="106.838" r="1.60912" fill="#EC6B6C"/>
<circle cx="72.4903" cy="1.99193" r="1.60912" fill="#EC6B6C"/>
<circle cx="72.4903" cy="13.6413" r="1.60912" fill="#EC6B6C"/>
<circle cx="72.4903" cy="25.2908" r="1.60912" fill="#EC6B6C"/>
<circle cx="72.4903" cy="36.9402" r="1.60912" fill="#EC6B6C"/>
<circle cx="72.4903" cy="48.5906" r="1.60912" fill="#EC6B6C"/>
<circle cx="72.4903" cy="60.239" r="1.60912" fill="#EC6B6C"/>
<circle cx="72.4903" cy="71.8894" r="1.60912" fill="#EC6B6C"/>
<circle cx="72.4903" cy="83.5388" r="1.60912" fill="#EC6B6C"/>
<circle cx="72.4903" cy="95.1892" r="1.60912" fill="#EC6B6C"/>
<circle cx="72.4903" cy="106.838" r="1.60912" fill="#EC6B6C"/>
<circle cx="84.2905" cy="1.99193" r="1.60912" fill="#EC6B6C"/>
<circle cx="84.2905" cy="13.6413" r="1.60912" fill="#EC6B6C"/>
<circle cx="84.2905" cy="25.2908" r="1.60912" fill="#EC6B6C"/>
<circle cx="84.2905" cy="36.9402" r="1.60912" fill="#EC6B6C"/>
<circle cx="84.2905" cy="48.5906" r="1.60912" fill="#EC6B6C"/>
<circle cx="84.2905" cy="60.239" r="1.60912" fill="#EC6B6C"/>
<circle cx="84.2905" cy="71.8894" r="1.60912" fill="#EC6B6C"/>
<circle cx="84.2905" cy="83.5388" r="1.60912" fill="#EC6B6C"/>
<circle cx="84.2905" cy="95.1892" r="1.60912" fill="#EC6B6C"/>
<circle cx="84.2905" cy="106.838" r="1.60912" fill="#EC6B6C"/>
<circle cx="96.0907" cy="1.99193" r="1.60912" fill="#EC6B6C"/>
<circle cx="96.0907" cy="13.6413" r="1.60912" fill="#EC6B6C"/>
<circle cx="96.0907" cy="25.2908" r="1.60912" fill="#EC6B6C"/>
<circle cx="96.0907" cy="36.9402" r="1.60912" fill="#EC6B6C"/>
<circle cx="96.0907" cy="48.5906" r="1.60912" fill="#EC6B6C"/>
<circle cx="96.0907" cy="60.239" r="1.60912" fill="#EC6B6C"/>
<circle cx="96.0907" cy="71.8894" r="1.60912" fill="#EC6B6C"/>
<circle cx="96.0907" cy="83.5388" r="1.60912" fill="#EC6B6C"/>
<circle cx="96.0907" cy="95.1892" r="1.60912" fill="#EC6B6C"/>
<circle cx="96.0907" cy="106.838" r="1.60912" fill="#EC6B6C"/>
<circle cx="107.891" cy="1.99193" r="1.60912" fill="#EC6B6C"/>
<circle cx="107.891" cy="13.6413" r="1.60912" fill="#EC6B6C"/>
<circle cx="107.891" cy="25.2908" r="1.60912" fill="#EC6B6C"/>
<circle cx="107.891" cy="36.9402" r="1.60912" fill="#EC6B6C"/>
<circle cx="107.891" cy="48.5906" r="1.60912" fill="#EC6B6C"/>
<circle cx="107.891" cy="60.239" r="1.60912" fill="#EC6B6C"/>
<circle cx="107.891" cy="71.8894" r="1.60912" fill="#EC6B6C"/>
<circle cx="107.891" cy="83.5388" r="1.60912" fill="#EC6B6C"/>
<circle cx="107.891" cy="95.1892" r="1.60912" fill="#EC6B6C"/>
<circle cx="107.891" cy="106.838" r="1.60912" fill="#EC6B6C"/>
</g>
</svg>
